<svg xmlns="http://www.w3.org/2000/svg" width="15.088" height="17.101" viewBox="0 0 15.088 17.101">
  <path id="Icon_metro-attachment" data-name="Icon metro-attachment" d="M13.5,7.07,12.48,6.05,7.372,11.156a2.166,2.166,0,0,0,3.064,3.064l6.129-6.128a3.611,3.611,0,0,0-5.107-5.106L5.024,9.42l-.014.013a5.036,5.036,0,0,0,7.123,7.121l.013-.014h0l4.392-4.391-1.022-1.021L11.124,15.52l-.013.013a3.591,3.591,0,0,1-5.08-5.078l.014-.013h0L12.48,4.007A2.167,2.167,0,0,1,15.544,7.07L9.415,13.2a.722.722,0,1,1-1.022-1.021L13.5,7.07Z" transform="translate(-3.035 -1.428)" fill="#1c7c97" stroke="rgba(0,0,0,0)" stroke-miterlimit="10" stroke-width="1"/>
</svg>
