<svg xmlns="http://www.w3.org/2000/svg" width="30.117" height="30.116" viewBox="0 0 30.117 30.116">
  <g id="Group_279" data-name="Group 279" transform="translate(-946.947 -526.478)">
    <path id="Path_274" data-name="Path 274" d="M977.064,541.6a15.059,15.059,0,1,1-15-15.121h.155A15.039,15.039,0,0,1,977.064,541.6Zm-14.6,13.556a13.593,13.593,0,1,0-14.011-13.161q.017.565.083,1.127a13.6,13.6,0,0,0,13.929,12.034Z" fill="#1a478b"/>
    <path id="Path_275" data-name="Path 275" d="M962.473,555.336a13.744,13.744,0,1,1,1.151-.086C963.242,555.3,962.858,555.323,962.473,555.336Zm12.18-13.747a12.6,12.6,0,1,0,0,.087Z" transform="translate(0)" fill="#fff"/>
    <path id="Path_276" data-name="Path 276" d="M974.808,541.592a12.8,12.8,0,1,1,0-.088Zm-12.837,2.56c.485,1.751.944,3.38,1.39,5.013.181.656.6.956,1.141.813s.783-.589.606-1.261c-.232-.9-.45-1.81-.736-2.695a14.461,14.461,0,0,1-.853-5.813.86.86,0,0,0,0-.22c-.1-.546.167-.673.669-.691,1.28-.047,2.559-.147,3.839-.234.494-.034.906-.2.988-.763.107-.72-.316-1.133-1.139-1.056a76.353,76.353,0,0,1-11.753.093c-.67-.041-1.078.21-1.133.742-.068.662.269,1.031,1,1.078.914.055,1.83.1,2.744.149l1.712.092a26.6,26.6,0,0,1-.032,3.38,26.864,26.864,0,0,1-.832,3.289c-.241.918-.5,1.833-.719,2.756a.885.885,0,0,0,.541,1.128c.033.012.066.021.1.029a.9.9,0,0,0,1.1-.633c.007-.023.012-.047.016-.07.088-.317.163-.637.248-.954.356-1.354.713-2.71,1.1-4.168Zm2.088-9a2.05,2.05,0,1,0-4.1-.068v.078a2.05,2.05,0,1,0,4.1.067C964.061,535.2,964.061,535.177,964.059,535.153Z" transform="translate(0 0)" fill="#1a478b"/>
    <path id="Path_278" data-name="Path 278" d="M961.846,534.2a1.745,1.745,0,0,1-3.489.074v-.066a1.745,1.745,0,1,1,3.489-.073Z" transform="translate(1.908 0.997)" fill="#fff"/>
  </g>
</svg>
