<svg xmlns="http://www.w3.org/2000/svg" width="17.844" height="21.386" viewBox="0 0 17.844 21.386">
  <path id="Union_73" data-name="Union 73" d="M7191.053,15715.24h1.175a1.39,1.39,0,1,0,2.781,0h1.172a2.564,2.564,0,0,1-5.128,0Zm-3.539-1.006a2.293,2.293,0,0,1-2.023-3.369l2.2-4.146a3.781,3.781,0,0,0,.441-1.768v-2.6a4.94,4.94,0,0,1,4.935-4.935h1.1a4.939,4.939,0,0,1,4.935,4.935v2.6a3.775,3.775,0,0,0,.442,1.768l2.2,4.146a2.293,2.293,0,0,1-2.024,3.369Zm1.791-11.882v2.6a4.979,4.979,0,0,1-.576,2.315l-2.205,4.15a1.119,1.119,0,0,0,.99,1.645h12.2a1.119,1.119,0,0,0,.99-1.645l-1.35-2.545h-5.538v-1.172h4.917l-.23-.434a4.941,4.941,0,0,1-.58-2.315v-2.6a3.767,3.767,0,0,0-3.763-3.763h-1.1A3.767,3.767,0,0,0,7189.306,15702.353Z" transform="translate(-7184.695 -15696.918)" fill="#fff" stroke="rgba(0,0,0,0)" stroke-miterlimit="10" stroke-width="1"/>
</svg>
