<svg xmlns="http://www.w3.org/2000/svg" width="23" height="24" viewBox="0 0 23 24">
  <g id="Group_532" data-name="Group 532" transform="translate(-1351 -828)">
    <rect id="Rectangle_1271" data-name="Rectangle 1271" width="23" height="22" rx="6" transform="translate(1351 830)" fill="#fff"/>
    <g id="Rectangle_1272" data-name="Rectangle 1272" transform="translate(1357 828)" fill="#fff" stroke="#1c7c97" stroke-linecap="round" stroke-linejoin="round" stroke-width="1">
      <rect width="3" height="7" rx="1.5" stroke="none"/>
      <rect x="0.5" y="0.5" width="2" height="6" rx="1" fill="none"/>
    </g>
    <g id="Rectangle_1273" data-name="Rectangle 1273" transform="translate(1365 828)" fill="#fff" stroke="#1c7c97" stroke-linecap="round" stroke-linejoin="round" stroke-width="1">
      <rect width="3" height="7" rx="1.5" stroke="none"/>
      <rect x="0.5" y="0.5" width="2" height="6" rx="1" fill="none"/>
    </g>
    <rect id="Rectangle_1274" data-name="Rectangle 1274" width="3" height="3" rx="1.5" transform="translate(1355 837)" fill="#1c7c97"/>
    <rect id="Rectangle_1281" data-name="Rectangle 1281" width="3" height="3" rx="1.5" transform="translate(1355 841)" fill="#1c7c97"/>
    <rect id="Rectangle_1285" data-name="Rectangle 1285" width="3" height="3" rx="1.5" transform="translate(1355 845)" fill="#1c7c97"/>
    <rect id="Rectangle_1275" data-name="Rectangle 1275" width="3" height="3" rx="1.5" transform="translate(1359 837)" fill="#1c7c97"/>
    <rect id="Rectangle_1280" data-name="Rectangle 1280" width="3" height="3" rx="1.5" transform="translate(1359 841)" fill="#1c7c97"/>
    <rect id="Rectangle_1284" data-name="Rectangle 1284" width="3" height="3" rx="1.5" transform="translate(1359 845)" fill="#1c7c97"/>
    <rect id="Rectangle_1276" data-name="Rectangle 1276" width="3" height="3" rx="1.5" transform="translate(1363 837)" fill="#1c7c97"/>
    <rect id="Rectangle_1279" data-name="Rectangle 1279" width="3" height="3" rx="1.5" transform="translate(1363 841)" fill="#1c7c97"/>
    <rect id="Rectangle_1277" data-name="Rectangle 1277" width="3" height="3" rx="1.5" transform="translate(1367 837)" fill="#1c7c97"/>
    <rect id="Rectangle_1278" data-name="Rectangle 1278" width="3" height="3" rx="1.5" transform="translate(1367 841)" fill="#1c7c97"/>
  </g>
</svg>
