<?xml version="1.0" encoding="utf-8"?>
<!-- Generator: Adobe Illustrator 27.6.1, SVG Export Plug-In . SVG Version: 6.00 Build 0)  -->
<svg version="1.1" id="Layer_1" xmlns="http://www.w3.org/2000/svg" xmlns:xlink="http://www.w3.org/1999/xlink" x="0px" y="0px"
	 viewBox="0 0 350 350" style="enable-background:new 0 0 350 350;" xml:space="preserve">
<g>
	<path d="M317.5,172.6c-22-48-79.2-80.1-142.5-80.1h-0.3c-63.1,0.1-120.2,32.3-142.2,80.1l-1.1,2.4l1.1,2.4
		c22,48,79.3,80.1,142.5,80.1h0.3c63.1-0.1,120.2-32.3,142.2-80.1l1.1-2.4L317.5,172.6z M175.3,246H175c-57.7,0-109.9-28.4-130.8-71
		c20.9-42.5,73-70.9,130.6-71h0.3c57.7,0,109.9,28.4,130.8,71C284.9,217.5,232.9,245.9,175.3,246z"/>
	<g>
		<path d="M175,125.6c27,0,48.9,22,48.9,48.9s-22,48.9-48.9,48.9c-27,0-48.9-22-48.9-48.9S148,125.6,175,125.6 M175,114.2
			c-33.3,0-60.4,27-60.4,60.4c0,33.3,27,60.4,60.4,60.4c33.3,0,60.4-27,60.4-60.4C235.4,141.3,208.3,114.2,175,114.2L175,114.2z"/>
	</g>
</g>
</svg>
