<?xml version="1.0" encoding="utf-8"?>
<!-- Generator: Adobe Illustrator 27.6.1, SVG Export Plug-In . SVG Version: 6.00 Build 0)  -->
<svg version="1.1" id="Layer_1" xmlns="http://www.w3.org/2000/svg" xmlns:xlink="http://www.w3.org/1999/xlink" x="0px" y="0px"
	 viewBox="0 0 350 350" style="enable-background:new 0 0 350 350;" xml:space="preserve">
<g>
	<path d="M317.5,172.6c-11.7-25.5-33.3-46.5-60.5-60.6l-8.5,8.6c25.5,12.5,46,31.4,57.4,54.4c-20.9,42.5-73,70.9-130.6,71H175
		c-15.9,0-31.3-2.1-45.8-6.2l-9.3,9.2c17.3,5.5,35.9,8.4,55.1,8.4h0.3c63.1-0.1,120.2-32.3,142.2-80.1l1.1-2.4L317.5,172.6z
		 M175,92.5h-0.3c-63.1,0.1-120.2,32.3-142.2,80.1l-1.1,2.4l1.1,2.4C44.2,202.9,65.9,223.9,93,238l8.5-8.5
		C76,216.9,55.5,198,44.2,175c20.9-42.5,73-70.9,130.6-71h0.3c15.9,0,31.3,2.1,45.9,6.2l9.2-9.2C212.8,95.4,194.2,92.5,175,92.5z"/>
	<path d="M226.2,142.8l-8.4,8.4c3.9,7,6.2,15.2,6.2,23.8c0,27-22,49-49,49c-8.6,0-16.8-2.2-23.8-6.2l-8.4,8.4
		c9.3,5.9,20.4,9.3,32.2,9.3c33.4,0,60.5-27.1,60.5-60.5C235.5,163.2,232.1,152.1,226.2,142.8z M175,114.5
		c-33.4,0-60.5,27.1-60.5,60.5c0,11.8,3.4,22.9,9.3,32.2l8.4-8.4c-3.9-7-6.2-15.2-6.2-23.8c0-27,22-49,49-49
		c8.6,0,16.8,2.2,23.8,6.2l8.4-8.4C197.9,117.9,186.8,114.5,175,114.5z"/>
	<path d="M276.6,81.5l-26.9,26.9l-8.7,8.7l-19.4,19.4l-8.2,8.2l-68.8,68.8l-8.2,8.2l-15.7,15.7l-9,9l-30.3,30.3
		c-1.1,1.1-2.6,1.7-4.1,1.7c-1.5,0-3-0.6-4.1-1.7c-2.3-2.2-2.3-5.9,0-8.1l26.9-26.9l8.7-8.7l27.5-27.5l68.8-68.8l63.1-63.1
		c1.1-1.1,2.6-1.7,4.1-1.7c1.5,0,3,0.6,4.1,1.7C278.9,75.6,278.9,79.3,276.6,81.5z"/>
</g>
</svg>
