<?xml version="1.0" encoding="UTF-8" standalone="no"?>
<!-- Generator: Adobe Illustrator 27.2.0, SVG Export Plug-In . SVG Version: 6.00 Build 0)  -->

<svg
   xmlns:dc="http://purl.org/dc/elements/1.1/"
   xmlns:cc="http://creativecommons.org/ns#"
   xmlns:rdf="http://www.w3.org/1999/02/22-rdf-syntax-ns#"
   xmlns:svg="http://www.w3.org/2000/svg"
   xmlns="http://www.w3.org/2000/svg"
   xmlns:sodipodi="http://sodipodi.sourceforge.net/DTD/sodipodi-0.dtd"
   xmlns:inkscape="http://www.inkscape.org/namespaces/inkscape"
   version="1.1"
   id="Warstwa_1"
   x="0px"
   y="0px"
   viewBox="0 0 226.1 55"
   style="enable-background:new 0 0 226.1 55;"
   xml:space="preserve"
   sodipodi:docname="KS.svg"
   inkscape:version="0.92.1 r15371"><metadata
   id="metadata100"><rdf:RDF><cc:Work
       rdf:about=""><dc:format>image/svg+xml</dc:format><dc:type
         rdf:resource="http://purl.org/dc/dcmitype/StillImage" /><dc:title></dc:title></cc:Work></rdf:RDF></metadata><defs
   id="defs98" /><sodipodi:namedview
   pagecolor="#ffffff"
   bordercolor="#666666"
   borderopacity="1"
   objecttolerance="10"
   gridtolerance="10"
   guidetolerance="10"
   inkscape:pageopacity="0"
   inkscape:pageshadow="2"
   inkscape:window-width="1920"
   inkscape:window-height="1017"
   id="namedview96"
   showgrid="false"
   inkscape:zoom="3.520566"
   inkscape:cx="107.13211"
   inkscape:cy="31.991483"
   inkscape:window-x="-8"
   inkscape:window-y="399"
   inkscape:window-maximized="1"
   inkscape:current-layer="g91" />
<style
   type="text/css"
   id="style2">
	.st0{enable-background:new    ;}
	.st1{fill:#010202;}
	.st2{fill:#E5281A;}
	.st3{fill:#FDC739;}
	.st4{fill:#FFFFFF;}
</style>
<g
   id="g93"
   transform="matrix(1.0249162,0,0,1.0676298,-2.9705108,-1.8598195)">
	<g
   id="g91">
		<g
   class="st0"
   id="g26"
   style="enable-background:new">
			<path
   class="st1"
   d="m 85.3,25.7 -4.5,-5.6 h -2.3 v 5.4 c 0,0.1 0,0.2 -0.1,0.2 -0.1,0.1 -0.1,0.1 -0.3,0.1 h -1.6 c -0.1,0 -0.2,0 -0.3,-0.1 -0.1,-0.1 -0.1,-0.1 -0.1,-0.2 V 12.9 c 0,-0.1 0,-0.2 0.1,-0.2 0.1,-0.1 0.1,-0.1 0.3,-0.1 h 1.6 c 0.1,0 0.2,0 0.3,0.1 0.1,0.1 0.1,0.1 0.1,0.2 v 5.3 h 2.2 l 4.5,-5.4 c 0.1,-0.1 0.3,-0.2 0.4,-0.2 h 1.8 c 0.1,0 0.2,0 0.2,0.1 0.1,0 0.1,0.1 0.1,0.2 0,0.1 0,0.2 -0.1,0.3 L 82.8,19 88,25.5 c 0.1,0.1 0.1,0.2 0.1,0.2 0,0.1 -0.1,0.2 -0.3,0.2 h -2.1 c -0.1,0 -0.3,-0.1 -0.4,-0.2 z"
   id="path4"
   inkscape:connector-curvature="0"
   style="fill:#010202" />
			<path
   class="st1"
   d="m 99.4,13.2 c 1.1,0.6 1.9,1.4 2.6,2.4 0.7,1 1,2.3 1,3.6 0,1.3 -0.3,2.6 -1,3.6 -0.7,1 -1.5,1.8 -2.6,2.4 -1.1,0.6 -2.2,0.8 -3.5,0.8 -1.3,0 -2.4,-0.3 -3.5,-0.8 -1.1,-0.6 -1.9,-1.4 -2.6,-2.4 -0.6,-1 -1,-2.3 -1,-3.6 0,-1.3 0.3,-2.6 1,-3.6 0.7,-1 1.5,-1.8 2.6,-2.4 1.1,-0.6 2.2,-0.8 3.5,-0.8 1.3,0 2.5,0.2 3.5,0.8 z m -7.5,8.5 c 0.4,0.7 0.9,1.3 1.6,1.7 0.7,0.4 1.5,0.6 2.4,0.6 0.9,0 1.7,-0.2 2.4,-0.6 0.7,-0.4 1.2,-1 1.6,-1.7 0.4,-0.7 0.6,-1.6 0.6,-2.5 0,-0.9 -0.2,-1.8 -0.6,-2.5 C 99.5,16 99,15.4 98.3,15 c -0.7,-0.4 -1.5,-0.6 -2.4,-0.6 -0.9,0 -1.7,0.2 -2.4,0.6 -0.7,0.4 -1.2,1 -1.6,1.7 -0.4,0.7 -0.6,1.6 -0.6,2.5 0,0.9 0.2,1.8 0.6,2.5 z"
   id="path6"
   inkscape:connector-curvature="0"
   style="fill:#010202" />
			<path
   class="st1"
   d="m 118.5,12.6 c 0.1,0.1 0.1,0.1 0.1,0.2 v 12.7 c 0,0.1 0,0.2 -0.1,0.2 -0.1,0 -0.1,0.1 -0.3,0.1 h -0.5 c -0.2,0 -0.3,-0.1 -0.4,-0.2 l -9,-8.8 v 8.7 c 0,0.1 0,0.2 -0.1,0.2 -0.1,0.1 -0.1,0.1 -0.3,0.1 h -1.6 c -0.1,0 -0.2,0 -0.3,-0.1 -0.1,-0.1 -0.1,-0.1 -0.1,-0.2 V 12.9 c 0,-0.1 0,-0.2 0.1,-0.2 0.1,-0.1 0.2,-0.1 0.2,-0.1 h 0.5 c 0.2,0 0.3,0.1 0.4,0.2 l 9,8.8 V 13 c 0,-0.1 0,-0.2 0.1,-0.2 0.1,-0.1 0.1,-0.1 0.3,-0.1 h 1.7 c 0.2,-0.2 0.2,-0.2 0.3,-0.1 z"
   id="path8"
   inkscape:connector-curvature="0"
   style="fill:#010202" />
			<path
   class="st1"
   d="m 124.5,17 c 0.3,0.2 0.6,0.4 1,0.6 0.4,0.1 1,0.3 1.7,0.5 1,0.2 1.8,0.5 2.5,0.7 0.6,0.2 1.2,0.6 1.6,1.1 0.5,0.5 0.7,1.2 0.7,2 0,0.9 -0.2,1.7 -0.7,2.3 -0.5,0.6 -1.2,1.1 -2,1.4 -0.8,0.3 -1.7,0.5 -2.8,0.5 -1,0 -1.9,-0.1 -2.6,-0.4 -0.8,-0.2 -1.5,-0.6 -2.3,-1 -0.1,-0.1 -0.2,-0.2 -0.2,-0.3 0,-0.1 0,-0.1 0.1,-0.2 L 122,23 c 0.1,-0.1 0.2,-0.2 0.3,-0.2 0.1,0 0.1,0 0.2,0.1 0.5,0.3 1,0.5 1.3,0.7 0.3,0.2 0.8,0.3 1.2,0.4 0.5,0.1 1,0.2 1.6,0.2 0.9,0 1.7,-0.2 2.2,-0.5 0.5,-0.3 0.8,-0.8 0.8,-1.4 0,-0.4 -0.1,-0.8 -0.4,-1 -0.3,-0.3 -0.6,-0.4 -1,-0.6 -0.4,-0.1 -1,-0.3 -1.7,-0.5 -1,-0.2 -1.8,-0.4 -2.4,-0.7 -0.6,-0.2 -1.1,-0.6 -1.6,-1.1 -0.5,-0.5 -0.6,-1.2 -0.6,-2.1 0,-0.7 0.2,-1.4 0.6,-2 0.4,-0.6 1,-1.1 1.8,-1.4 0.8,-0.4 1.7,-0.5 2.9,-0.5 1,0 1.7,0.1 2.4,0.3 0.6,0.2 1.3,0.5 2,0.9 0.1,0.1 0.2,0.2 0.2,0.3 0,0.1 0,0.1 -0.1,0.2 l -0.6,1.3 c 0,0.1 -0.1,0.2 -0.2,0.2 -0.1,0 -0.2,0 -0.3,-0.1 -0.5,-0.3 -1,-0.5 -1.5,-0.8 -0.5,-0.2 -1.2,-0.3 -1.9,-0.3 -1,0 -1.7,0.2 -2.2,0.5 -0.5,0.4 -0.7,0.8 -0.7,1.3 -0.2,0.3 -0.1,0.6 0.2,0.8 z"
   id="path10"
   inkscape:connector-curvature="0"
   style="fill:#010202" />
			<path
   class="st1"
   d="m 147,12.6 c 0.1,0.1 0.1,0.1 0.1,0.2 v 7.4 c 0,2 -0.6,3.4 -1.7,4.4 -1.1,1 -2.6,1.5 -4.5,1.5 -1.9,0 -3.4,-0.5 -4.5,-1.5 -1.1,-1 -1.7,-2.4 -1.7,-4.4 v -7.4 c 0,-0.1 0,-0.2 0.1,-0.2 0.1,0 0.1,-0.1 0.2,-0.1 h 1.7 c 0.1,0 0.2,0 0.3,0.1 0.1,0.1 0.1,0.1 0.1,0.2 V 20 c 0,2.7 1.3,4 3.8,4 2.5,0 3.8,-1.3 3.8,-4 v -7.1 c 0,-0.1 0,-0.2 0.1,-0.2 0.1,-0.1 0.2,-0.1 0.2,-0.1 h 1.7 c 0.2,-0.1 0.3,-0.1 0.3,0 z"
   id="path12"
   inkscape:connector-curvature="0"
   style="fill:#010202" />
			<path
   class="st1"
   d="m 160.3,24 c 0.1,0.1 0.1,0.1 0.1,0.2 v 1.3 c 0,0.1 0,0.2 -0.1,0.2 -0.1,0.1 -0.1,0.1 -0.3,0.1 h -9.3 c -0.1,0 -0.2,0 -0.3,-0.1 -0.1,-0.1 -0.1,-0.1 -0.1,-0.2 V 12.9 c 0,-0.1 0,-0.2 0.1,-0.2 0.1,0 0.1,-0.1 0.3,-0.1 h 1.7 c 0.1,0 0.2,0 0.3,0.1 0.1,0.1 0.1,0.1 0.1,0.2 v 11 h 7.3 c 0,0 0.1,0 0.2,0.1 z"
   id="path14"
   inkscape:connector-curvature="0"
   style="fill:#010202" />
			<path
   class="st1"
   d="m 170.3,12.6 c 0.1,0.1 0.1,0.1 0.1,0.2 v 1.3 c 0,0.1 0,0.2 -0.1,0.2 -0.1,0.1 -0.1,0.1 -0.3,0.1 h -4.5 v 11 c 0,0.1 0,0.2 -0.1,0.2 -0.1,0.1 -0.1,0.1 -0.3,0.1 h -1.6 c -0.1,0 -0.2,0 -0.2,-0.1 0,-0.1 -0.1,-0.1 -0.1,-0.2 v -11 h -4.5 c -0.1,0 -0.2,0 -0.3,-0.1 -0.1,-0.1 -0.1,-0.1 -0.1,-0.2 v -1.3 c 0,-0.1 0,-0.2 0.1,-0.2 0.1,0 0.1,-0.1 0.3,-0.1 H 170 c 0.1,0 0.2,0 0.3,0.1 z"
   id="path16"
   inkscape:connector-curvature="0"
   style="fill:#010202" />
			<path
   class="st1"
   d="m 183.2,25.7 c 0,0.2 -0.1,0.2 -0.3,0.2 h -2 c -0.2,0 -0.3,-0.1 -0.4,-0.2 L 179.3,23 H 173 l -1.3,2.7 c -0.1,0.2 -0.2,0.2 -0.4,0.2 h -1.7 c -0.1,0 -0.2,0 -0.2,-0.1 -0.1,0 -0.1,-0.1 -0.1,-0.2 0,-0.1 0,-0.1 0.1,-0.2 l 6.2,-12.9 c 0.1,-0.2 0.2,-0.2 0.4,-0.2 h 0.7 c 0.2,0 0.3,0.1 0.4,0.2 l 6.1,12.9 c 0,0.1 0,0.2 0,0.3 z m -4.7,-4.6 -2.3,-5 -2.3,5 z"
   id="path18"
   inkscape:connector-curvature="0"
   style="fill:#010202" />
			<path
   class="st1"
   d="m 187.9,25.2 c -1.1,-0.6 -1.9,-1.4 -2.6,-2.4 -0.7,-1 -1,-2.2 -1,-3.6 0,-1.4 0.3,-2.5 1,-3.6 0.7,-1.1 1.5,-1.9 2.6,-2.4 1.1,-0.6 2.2,-0.9 3.4,-0.9 1.4,0 2.5,0.3 3.5,0.8 1,0.5 1.8,1.4 2.4,2.6 0,0.1 0.1,0.1 0.1,0.2 0,0.1 -0.1,0.2 -0.2,0.3 l -1.3,0.6 c -0.1,0 -0.1,0.1 -0.2,0.1 -0.1,0 -0.2,-0.1 -0.3,-0.2 -0.4,-0.8 -1,-1.4 -1.6,-1.7 -0.6,-0.3 -1.5,-0.5 -2.4,-0.5 -0.9,0 -1.7,0.2 -2.4,0.6 -0.7,0.4 -1.2,1 -1.6,1.7 -0.4,0.7 -0.6,1.6 -0.6,2.5 0,0.9 0.2,1.7 0.6,2.5 0.4,0.7 0.9,1.3 1.6,1.7 0.7,0.4 1.5,0.6 2.4,0.6 2,0 3.4,-0.7 4.2,-2.2 0.1,-0.2 0.2,-0.2 0.3,-0.2 0.1,0 0.1,0 0.2,0 l 1.3,0.6 c 0.1,0.1 0.2,0.2 0.2,0.3 0,0.1 0,0.1 -0.1,0.2 -1.2,2.3 -3.2,3.4 -6.1,3.4 -1.2,-0.1 -2.3,-0.4 -3.4,-1 z"
   id="path20"
   inkscape:connector-curvature="0"
   style="fill:#010202" />
			<path
   class="st1"
   d="m 207.5,12.6 c 0.1,0.1 0.1,0.1 0.1,0.2 v 8.7 c 0,1.4 -0.4,2.5 -1.3,3.3 -0.9,0.8 -2.1,1.2 -3.6,1.2 -1,0 -2,-0.2 -2.7,-0.7 -0.7,-0.5 -1.3,-1 -1.7,-1.7 0,-0.1 -0.1,-0.1 -0.1,-0.2 0,-0.1 0.1,-0.2 0.2,-0.3 l 1.3,-0.7 c 0.1,0 0.1,-0.1 0.2,-0.1 0.1,0 0.2,0.1 0.3,0.2 0.2,0.4 0.6,0.7 0.9,1 0.3,0.3 0.9,0.4 1.5,0.4 0.9,0 1.5,-0.2 1.9,-0.7 0.4,-0.4 0.6,-1.2 0.6,-2.1 v -8.4 c 0,-0.1 0,-0.2 0.1,-0.2 0.1,0 0.1,-0.1 0.3,-0.1 h 1.7 c 0.1,0.1 0.2,0.1 0.3,0.2 z"
   id="path22"
   inkscape:connector-curvature="0"
   style="fill:#010202" />
			<path
   class="st1"
   d="m 221.4,24 c 0.1,0.1 0.1,0.1 0.1,0.2 v 1.3 c 0,0.1 0,0.2 -0.1,0.2 -0.1,0.1 -0.1,0.1 -0.2,0.1 h -10 c -0.1,0 -0.2,0 -0.2,-0.1 -0.1,-0.1 -0.1,-0.1 -0.1,-0.2 V 12.9 c 0,-0.1 0,-0.2 0.1,-0.2 0.1,0 0.1,-0.1 0.2,-0.1 h 9.8 c 0.1,0 0.2,0 0.3,0.1 0.1,0.1 0.1,0.1 0.1,0.2 v 1.3 c 0,0.1 0,0.2 -0.1,0.2 -0.1,0 -0.1,0.1 -0.3,0.1 h -7.7 V 18 h 6.8 c 0.1,0 0.2,0 0.3,0.1 0.1,0.1 0.1,0.1 0.1,0.2 v 1.3 c 0,0.1 0,0.2 -0.1,0.2 -0.1,0.1 -0.1,0.1 -0.3,0.1 h -6.8 v 3.9 h 8 c 0,0.1 0,0.1 0.1,0.2 z"
   id="path24"
   inkscape:connector-curvature="0"
   style="fill:#010202" />
		</g>
		<g
   class="st0"
   id="g46"
   style="enable-background:new">
			<path
   class="st1"
   d="m 80.1,35.8 c 0.4,0.2 1,0.4 1.9,0.6 1,0.2 1.8,0.5 2.5,0.8 0.7,0.3 1.2,0.7 1.7,1.2 0.5,0.6 0.7,1.3 0.7,2.2 0,1 -0.3,1.8 -0.8,2.5 -0.6,0.7 -1.3,1.2 -2.3,1.5 -0.9,0.3 -2,0.5 -3.1,0.5 -1.9,0 -3.6,-0.4 -5.1,-1.3 -0.2,-0.1 -0.2,-0.2 -0.2,-0.4 0,-0.1 0,-0.1 0,-0.2 l 0.9,-1.9 c 0.1,-0.2 0.2,-0.3 0.3,-0.3 0.1,0 0.1,0 0.2,0.1 0.8,0.3 1.4,0.6 2,0.8 0.6,0.2 1.3,0.2 2.1,0.2 1.3,0 1.9,-0.4 1.9,-1.1 0,-0.3 -0.1,-0.5 -0.3,-0.7 C 82.3,40.1 82,40 81.7,39.9 81.4,39.8 80.9,39.7 80.3,39.5 79.3,39.2 78.6,39 77.9,38.7 77.3,38.5 76.8,38.1 76.3,37.5 75.9,37 75.6,36.3 75.6,35.4 c 0,-0.8 0.2,-1.6 0.7,-2.2 0.4,-0.6 1.1,-1.1 2,-1.5 0.9,-0.4 1.9,-0.5 3.1,-0.5 1.1,0 2,0.1 2.7,0.3 0.8,0.2 1.5,0.5 2.1,0.9 0.1,0.1 0.2,0.2 0.2,0.3 0,0.1 0,0.2 -0.1,0.2 l -0.8,1.7 c -0.1,0.2 -0.2,0.3 -0.3,0.3 -0.1,0 -0.2,0 -0.3,-0.1 -0.6,-0.3 -1.1,-0.5 -1.7,-0.7 -0.5,-0.2 -1.1,-0.3 -1.8,-0.3 -0.7,0 -1.2,0.1 -1.5,0.3 -0.3,0.2 -0.5,0.5 -0.5,0.8 0.1,0.4 0.3,0.7 0.7,0.9 z"
   id="path28"
   inkscape:connector-curvature="0"
   style="fill:#010202" />
			<path
   class="st1"
   d="m 98.8,32 c 0.8,0.4 1.5,1 1.9,1.7 0.4,0.7 0.6,1.5 0.6,2.4 0,0.9 -0.2,1.7 -0.6,2.4 -0.4,0.7 -1.1,1.3 -1.9,1.7 -0.8,0.4 -1.9,0.6 -3,0.6 H 93 v 3.7 c 0,0.1 0,0.2 -0.1,0.3 -0.1,0.1 -0.2,0.1 -0.3,0.1 h -3.1 c -0.1,0 -0.2,0 -0.3,-0.1 -0.1,-0.1 -0.1,-0.2 -0.1,-0.3 V 31.8 c 0,-0.1 0,-0.2 0.1,-0.3 0.1,-0.1 0.2,-0.1 0.3,-0.1 h 6.2 c 1.2,0 2.2,0.2 3.1,0.6 z M 95,37.9 c 0.8,0 1.4,-0.2 1.8,-0.5 0.4,-0.3 0.5,-0.8 0.5,-1.3 0,-0.5 -0.2,-1 -0.6,-1.3 -0.4,-0.3 -1,-0.5 -1.8,-0.5 H 93 v 3.6 z"
   id="path30"
   inkscape:connector-curvature="0"
   style="fill:#010202" />
			<path
   class="st1"
   d="m 113.7,32 c 1.1,0.6 2.1,1.4 2.7,2.4 0.7,1.1 1,2.3 1,3.6 0,1.4 -0.3,2.6 -1,3.7 -0.7,1.1 -1.6,1.9 -2.7,2.4 -1.1,0.6 -2.4,0.9 -3.8,0.9 -1.4,0 -2.7,-0.3 -3.8,-0.9 -1.1,-0.6 -2.1,-1.4 -2.7,-2.4 -0.7,-1.1 -1,-2.3 -1,-3.7 0,-1.4 0.3,-2.6 1,-3.6 0.7,-1.1 1.6,-1.9 2.7,-2.4 1.1,-0.6 2.4,-0.9 3.8,-0.9 1.4,0.1 2.7,0.4 3.8,0.9 z m -6.9,8.1 c 0.3,0.6 0.7,1 1.2,1.3 0.5,0.3 1.1,0.5 1.8,0.5 0.7,0 1.3,-0.2 1.8,-0.5 0.5,-0.3 1,-0.8 1.2,-1.3 0.3,-0.6 0.4,-1.2 0.4,-2 0,-0.8 -0.1,-1.4 -0.4,-2 -0.3,-0.6 -0.7,-1 -1.2,-1.3 -0.5,-0.3 -1.1,-0.5 -1.8,-0.5 -0.7,0 -1.3,0.2 -1.8,0.5 -0.5,0.3 -1,0.8 -1.2,1.3 -0.3,0.6 -0.4,1.2 -0.4,2 0,0.8 0.1,1.4 0.4,2 z"
   id="path32"
   inkscape:connector-curvature="0"
   style="fill:#010202" />
			<path
   class="st1"
   d="m 130.8,41.8 c 0.1,0.1 0.1,0.2 0.1,0.3 v 2.3 c 0,0.1 0,0.2 -0.1,0.3 -0.1,0.1 -0.2,0.1 -0.3,0.1 h -9.9 c -0.1,0 -0.2,0 -0.3,-0.1 -0.1,-0.1 -0.1,-0.2 -0.1,-0.3 v -3.3 l -0.9,0.4 c -0.1,0 -0.2,0 -0.2,0 -0.1,0 -0.2,-0.1 -0.3,-0.2 l -0.7,-1.5 c 0,0 0,-0.1 0,-0.2 0,-0.1 0.1,-0.2 0.3,-0.3 l 1.9,-0.9 v -6.6 c 0,-0.1 0,-0.2 0.1,-0.3 0.1,-0.1 0.2,-0.1 0.3,-0.1 h 3.1 c 0.1,0 0.2,0 0.3,0.1 0.1,0.1 0.1,0.2 0.1,0.3 v 4.9 l 4,-1.9 c 0.1,0 0.1,-0.1 0.2,-0.1 0.1,0 0.3,0.1 0.3,0.2 l 0.7,1.5 c 0,0 0,0.1 0,0.2 0,0.1 -0.1,0.2 -0.2,0.3 l -5.1,2.4 v 2.2 h 6.4 c 0.1,0.2 0.2,0.2 0.3,0.3 z"
   id="path34"
   inkscape:connector-curvature="0"
   style="fill:#010202" />
			<path
   class="st1"
   d="m 143.7,42 c 0.1,0.1 0.1,0.2 0.1,0.3 v 2.1 c 0,0.3 -0.1,0.4 -0.4,0.4 h -10.5 c -0.1,0 -0.2,0 -0.3,-0.1 -0.1,-0.1 -0.1,-0.2 -0.1,-0.3 V 31.8 c 0,-0.1 0,-0.2 0.1,-0.3 0.1,-0.1 0.2,-0.1 0.3,-0.1 h 10.3 c 0.1,0 0.2,0 0.3,0.1 0.1,0.1 0.1,0.2 0.1,0.3 V 34 c 0,0.1 0,0.2 -0.1,0.3 -0.1,0.1 -0.2,0.1 -0.3,0.1 h -6.8 v 2.3 h 5.9 c 0.1,0 0.2,0 0.3,0.1 0.1,0.1 0.1,0.2 0.1,0.3 v 1.8 c 0,0.1 0,0.2 -0.1,0.3 -0.1,0.1 -0.2,0.1 -0.3,0.1 h -5.9 v 2.6 h 7.1 c 0.1,0 0.2,0 0.2,0.1 z"
   id="path36"
   inkscape:connector-curvature="0"
   style="fill:#010202" />
			<path
   class="st1"
   d="m 148.7,44.2 c -1.1,-0.6 -2,-1.4 -2.7,-2.4 -0.7,-1.1 -1,-2.3 -1,-3.7 0,-1.4 0.3,-2.6 1,-3.7 0.7,-1.1 1.6,-1.9 2.7,-2.4 1.1,-0.6 2.4,-0.9 3.8,-0.9 1.3,0 2.5,0.3 3.6,0.8 1.1,0.5 1.9,1.4 2.5,2.5 0,0.1 0.1,0.2 0.1,0.2 0,0.2 -0.1,0.3 -0.3,0.4 l -2.3,1.1 c -0.1,0 -0.1,0.1 -0.2,0.1 -0.2,0 -0.3,-0.1 -0.4,-0.3 -0.3,-0.6 -0.7,-1 -1.2,-1.3 -0.5,-0.3 -1.1,-0.4 -1.8,-0.4 -1,0 -1.9,0.4 -2.5,1.1 -0.6,0.7 -0.9,1.6 -0.9,2.8 0,1.2 0.3,2 0.9,2.8 0.6,0.7 1.5,1.1 2.5,1.1 1.4,0 2.5,-0.6 3.1,-1.7 0.1,-0.2 0.3,-0.3 0.4,-0.3 0.1,0 0.2,0 0.2,0.1 l 2.3,1.1 c 0.2,0.1 0.3,0.2 0.3,0.4 0,0.1 0,0.2 -0.1,0.2 -0.6,1.1 -1.4,2 -2.6,2.5 -1.1,0.5 -2.4,0.8 -3.7,0.8 -1.3,-0.1 -2.5,-0.3 -3.7,-0.9 z"
   id="path38"
   inkscape:connector-curvature="0"
   style="fill:#010202" />
			<path
   class="st1"
   d="m 159.7,44.7 c -0.1,-0.1 -0.1,-0.2 -0.1,-0.3 v -0.8 c 0,-0.2 0.1,-0.4 0.2,-0.6 l 6.7,-8.5 h -5.9 c -0.1,0 -0.2,0 -0.3,-0.1 -0.1,-0.1 -0.1,-0.2 -0.1,-0.3 v -2.3 c 0,-0.1 0,-0.2 0.1,-0.3 0.1,-0.1 0.2,-0.1 0.3,-0.1 H 172 c 0.1,0 0.2,0 0.3,0.1 0.1,0.1 0.1,0.2 0.1,0.3 v 0.8 c 0,0.2 -0.1,0.4 -0.2,0.6 l -6.8,8.5 h 6.8 c 0.1,0 0.2,0 0.3,0.1 0.1,0.1 0.1,0.2 0.1,0.3 v 2.3 c 0,0.1 0,0.2 -0.1,0.3 -0.1,0.1 -0.2,0.1 -0.3,0.1 H 160 c -0.2,0 -0.3,0 -0.3,-0.1 z"
   id="path40"
   inkscape:connector-curvature="0"
   style="fill:#010202" />
			<path
   class="st1"
   d="m 188.2,31.5 c 0.1,0.1 0.1,0.2 0.1,0.3 v 12.6 c 0,0.1 0,0.2 -0.1,0.3 -0.1,0.1 -0.2,0.1 -0.3,0.1 h -1.3 c -0.2,0 -0.4,-0.1 -0.6,-0.2 l -7.7,-7 v 6.8 c 0,0.1 0,0.2 -0.1,0.3 -0.1,0.1 -0.2,0.1 -0.3,0.1 h -3.1 c -0.1,0 -0.2,0 -0.3,-0.1 -0.1,-0.1 -0.1,-0.2 -0.1,-0.3 V 31.8 c 0,-0.1 0,-0.2 0.1,-0.3 0.1,-0.1 0.2,-0.1 0.3,-0.1 h 1.3 c 0.2,0 0.4,0.1 0.6,0.2 l 7.7,7 v -6.7 c 0,-0.1 0,-0.2 0.1,-0.3 0.1,-0.1 0.2,-0.1 0.3,-0.1 h 3.1 c 0.1,-0.1 0.2,0 0.3,0 z"
   id="path42"
   inkscape:connector-curvature="0"
   style="fill:#010202" />
			<path
   class="st1"
   d="m 202.2,42 c 0.1,0.1 0.1,0.2 0.1,0.3 v 2.1 c 0,0.3 -0.1,0.4 -0.4,0.4 h -10.5 c -0.1,0 -0.2,0 -0.3,-0.1 C 191,44.6 191,44.5 191,44.4 V 31.8 c 0,-0.1 0,-0.2 0.1,-0.3 0.1,-0.1 0.2,-0.1 0.3,-0.1 h 10.3 c 0.1,0 0.2,0 0.3,0.1 0.1,0.1 0.1,0.2 0.1,0.3 V 34 c 0,0.1 0,0.2 -0.1,0.3 -0.1,0.1 -0.2,0.1 -0.3,0.1 h -6.8 v 2.3 h 5.9 c 0.1,0 0.2,0 0.3,0.1 0.1,0.1 0.1,0.2 0.1,0.3 v 1.8 c 0,0.1 0,0.2 -0.1,0.3 -0.1,0.1 -0.2,0.1 -0.3,0.1 h -5.9 v 2.6 h 7.1 c 0,0 0.1,0 0.2,0.1 z"
   id="path44"
   inkscape:connector-curvature="0"
   style="fill:#010202" />
		</g>
		<g
   id="pionowy_00000020368670223374183580000013973786661066311819_"
   transform="translate(3.902758)">
			<g
   id="g70">
				<g
   id="g68">
					<g
   id="g50">
						<path
   class="st2"
   d="m 16.5,44.8 c 0.6,-1.7 2.2,-2.9 4.1,-2.9 v 0 0 h 4.6 v 0 c 1.6,0 2.9,-1.3 2.9,-2.9 L 28,16 H 4.9 v 23 c 0,1.6 1.3,2.9 2.9,2.9 h 4.6 v 0 0 c 1.9,0 3.5,1.2 4.1,2.9 z"
   id="path48"
   inkscape:connector-curvature="0"
   style="fill:#e5281a" />
					</g>
					<g
   id="g56">
						<path
   class="st3"
   d="M 21.5,7.3 C 21,7.3 20.6,7.4 20.2,7.7 19.8,7.5 19.4,7.3 18.9,7.3 c -0.5,0 -1,0.2 -1.4,0.4 0,-0.5 -0.4,-0.9 -1,-0.9 -0.5,0 -0.9,0.4 -1,0.9 C 15.1,7.4 14.6,7.3 14.1,7.3 13.6,7.3 13.2,7.4 12.8,7.7 12.4,7.5 12,7.3 11.5,7.3 10,7.3 8.9,8.5 8.9,9.9 c 0,1.4 1.2,2.6 2.6,2.6 L 12,14 h 9 l 0.6,-1.4 c 1.5,0 2.6,-1.2 2.6,-2.6 0,-1.4 -1.2,-2.7 -2.7,-2.7 m -2.9,0.4 c 0.9,0 1.6,0.7 1.6,1.6 0,0.9 -0.7,1.6 -1.6,1.6 -0.9,0 -1.6,-0.7 -1.6,-1.6 0,-0.9 0.7,-1.6 1.6,-1.6 m -4.2,0 c 0.9,0 1.6,0.7 1.6,1.6 0,0.9 -0.7,1.6 -1.6,1.6 -0.9,0 -1.6,-0.7 -1.6,-1.6 0,-0.9 0.7,-1.6 1.6,-1.6 m -4.2,1.5 c 0,-0.9 0.7,-1.6 1.6,-1.6 0.3,0 0.5,0.1 0.7,0.2 -0.6,0.5 -1,1.2 -1,2.1 0,0.3 0,0.6 0.1,0.8 -0.8,0 -1.4,-0.7 -1.4,-1.5 m 11.2,1.6 c 0.1,-0.3 0.1,-0.5 0.1,-0.8 0,-0.9 -0.4,-1.6 -1,-2.1 0.2,-0.1 0.5,-0.2 0.7,-0.2 0.9,0 1.6,0.7 1.6,1.6 0,0.7 -0.6,1.4 -1.4,1.5"
   id="path52"
   inkscape:connector-curvature="0"
   style="fill:#fdc739" />
						<path
   class="st3"
   d="M 16.2,5.8 15.9,6.3 H 17 L 16.7,5.8 c 0.1,0 0.1,-0.1 0.2,-0.2 l 0.5,0.3 V 4.8 L 16.9,5.1 C 16.9,5 16.8,5 16.7,4.9 L 17,4.4 h -1.1 l 0.3,0.5 C 16.1,4.9 16.1,5 16,5.1 L 15.5,4.8 V 5.9 L 16,5.6 c 0.1,0.1 0.2,0.2 0.2,0.2"
   id="path54"
   inkscape:connector-curvature="0"
   style="fill:#fdc739" />
					</g>
					<g
   id="g66">
						<path
   class="st4"
   d="m 17.6,25.2 c 0,0 0,-0.1 0,0 0.2,-0.4 0.5,-0.8 0.7,-1 -0.4,-0.2 -1.9,-0.8 -2,-0.9 -0.5,-0.2 -0.1,-1.2 -0.1,-1.5 -1,-0.1 -1,-1.8 -1.6,-2 v 0 c -0.2,0.1 -0.3,0.3 -0.4,0.6 0,0.1 0,0.2 -0.1,0.3 -0.1,0.1 -0.3,0.2 -0.3,0.3 0,0.1 0.2,0.2 0.2,0.2 0,0.1 -0.1,0.1 -0.1,0.2 0,0.1 0.1,0.1 0,0.2 0,0.1 -0.1,0.2 0,0.3 0,0 0.1,0.1 0.2,0.1 0.3,0.1 0.6,0 0.9,-0.1 v 0 c 0,0.1 -0.1,0.1 -0.2,0.2 -0.1,0 -0.1,0.1 -0.2,0.1 0,0.3 -0.1,0.8 -0.2,0.8 -1.1,-0.1 -1.6,-0.6 -3.3,-1.2 0.1,-0.8 0.5,-2.3 0.6,-2.8 -0.1,0 -0.2,-0.1 -0.3,-0.1 v 0 c 0.1,0 0.3,0 0.4,0 0.1,0 0.4,-0.1 0.5,-0.1 0,0 0.1,-0.2 0.1,-0.4 h 0.4 v 0.2 l 0.1,0.6 h 0.4 v -0.6 -0.1 c 0.1,0 1.3,-0.1 2.9,-0.1 3.8,0 5.3,1 6.2,2 V 20.2 C 21.8,18.9 20,17.8 16.2,17.8 h -2.6 c -0.1,0.2 -0.3,0.5 -0.3,0.7 V 17.7 17.1 H 12.9 L 13,17.8 V 18 h -0.3 c 0,-0.1 0,-0.1 0,-0.2 -0.1,0 -0.2,0.1 -0.2,0.1 0,0.1 -0.2,0.5 -0.2,0.5 H 12 v 0 c 0,0 0,0 0,-0.1 v 0 0 c 0.1,0 0.1,0 0.1,-0.1 0,0 0.1,-0.2 0.1,-0.3 0,-0.1 0.1,-0.1 0.1,-0.1 h 0.1 c 0,-0.1 -0.2,-0.3 -0.2,-0.3 -0.1,-0.1 -0.1,-0.1 -0.2,0 v 0 l -0.1,-0.1 c -0.1,-0.1 -0.1,-0.1 -0.2,0 v 0 l -0.1,-0.1 c -0.1,0 -0.1,0.1 -0.1,0.1 v 0 c 0,0 0,0 -0.1,0 -0.1,0 -0.1,0.1 -0.1,0.1 v 0 h -0.7 v 0.6 h 0.5 c 0,0.1 0,0.2 0,0.2 0,0.1 0,0.1 0.1,0.2 0,0.5 -1.1,2.9 -0.9,3.5 0.2,0.6 3,1.4 2.7,1.9 -0.2,0.5 -0.5,0.9 -0.5,1.1 0.1,0.2 0.2,0.4 0.4,0.5 v 0 c 0.1,0.1 0.2,0.1 0.3,0.1 v 0 0 c -0.1,0 -0.2,0 -0.3,0 v 1.5 0 c -0.6,0.6 -1.2,1.3 -1.5,2.1 1.2,1.2 3.2,1.6 4.8,0.8 0,-0.9 -0.2,-1.5 -0.6,-2.3 0,0 1.3,-2.8 1.5,-2.9 0.2,0.4 0.4,0.4 0.5,0.4 m -3.2,1 v 0 c 0.2,0.2 0.5,0.3 0.8,0.3 0.4,0 0.8,-0.3 0.9,-0.7 h 0.1 c 0.1,1.1 -1.2,1.7 -1.8,0.4"
   id="path58"
   inkscape:connector-curvature="0"
   style="fill:#ffffff" />
						<path
   class="st3"
   d="m 17.2,21.1 c 0.1,0.1 0.4,0.2 0.7,0.1 v 0 0 c -0.2,0.3 -0.4,0.4 -0.7,0.6 -0.4,0.1 -0.7,0.2 -1.1,0.1 -1,-0.1 -1,-1.8 -1.6,-2 -0.1,-0.1 0.1,-0.3 0.3,-0.4 0.4,-0.2 1,-0.1 1.4,0.2 0.6,0.4 0.7,0.8 1.8,0.7 0.2,0.5 -0.5,0.7 -0.8,0.7"
   id="path60"
   inkscape:connector-curvature="0"
   style="fill:#fdc739" />
						<path
   class="st3"
   d="m 18.4,24.1 c -0.3,0.3 -0.6,0.6 -0.8,1 -0.3,0.5 -0.4,1.1 -0.4,1.7 0,2 1.6,3.6 3.6,3.6 2,0 3.6,-1.6 3.6,-3.6 0,-2 -1.6,-3.6 -3.6,-3.6 -0.9,0 -1.8,0.3 -2.4,0.9"
   id="path62"
   inkscape:connector-curvature="0"
   style="fill:#fdc739" />
						<path
   class="st3"
   d="m 19.7,33.2 c -0.8,-0.5 -1.9,-0.3 -2.5,0.6 1.1,0 2,0.9 2,2 0,1.1 -0.9,2 -2,2 -1.1,0 -2,-0.9 -2,-2 0,-1.9 1.1,-3.3 1.1,-5 0,-0.1 0,-0.2 0,-0.3 -1.7,0.8 -3.6,0.4 -4.8,-0.8 -0.5,0.9 -0.7,1.9 -0.7,3.1 v 0 c 0,4.4 2.6,7.2 5.8,7.2 v 0 c 2.4,0 4.5,-1.8 4.5,-4.4 0,-2.2 0.4,-3.1 0.9,-3.6 -1.1,-0.3 -2.1,0.2 -2.3,1.2"
   id="path64"
   inkscape:connector-curvature="0"
   style="fill:#fdc739" />
					</g>
				</g>
			</g>
			<g
   id="g88">
				<path
   class="st1"
   d="m 9.4,47.4 v 0 l -1,3.1 c 0,0 0,0.1 -0.1,0.1 H 8.1 c 0,0 -0.1,0 -0.1,-0.1 L 7.2,48.4 6.4,50.5 c 0,0 0,0.1 -0.1,0.1 H 6.1 c 0,0 -0.1,0 -0.1,-0.1 l -1.1,-3 c 0,-0.1 0,-0.1 0.1,-0.1 h 0.4 c 0,0 0.1,0 0.1,0.1 L 6.2,49.6 7,47.5 c 0,0 0,-0.1 0.1,-0.1 h 0.1 c 0,0 0.1,0 0.1,0.1 l 0.8,2.1 0.7,-2.1 c 0,0 0,-0.1 0.1,-0.1 z"
   id="path72"
   inkscape:connector-curvature="0"
   style="fill:#010202" />
				<path
   class="st1"
   d="m 9.6,49.4 c 0,-0.7 0.5,-1.2 1.1,-1.2 0.4,0 0.6,0.2 0.8,0.4 v -0.3 c 0,0 0,-0.1 0.1,-0.1 h 0.3 c 0,0 0.1,0 0.1,0.1 v 2.1 c 0,0 0,0.1 -0.1,0.1 h -0.3 c 0,0 -0.1,0 -0.1,-0.1 v -0.3 c -0.2,0.3 -0.4,0.4 -0.8,0.4 -0.5,0.1 -1.1,-0.4 -1.1,-1.1 z m 0.6,0 c 0,0.5 0.3,0.7 0.7,0.7 0.4,0 0.7,-0.3 0.7,-0.7 0,-0.4 -0.3,-0.7 -0.7,-0.7 -0.4,0 -0.7,0.2 -0.7,0.7 z"
   id="path74"
   inkscape:connector-curvature="0"
   style="fill:#010202" />
				<path
   class="st1"
   d="m 13.9,48.2 c 0.1,0 0.1,0 0,0 l 0.1,0.5 c 0,0 0,0.1 -0.1,0.1 -0.3,-0.1 -0.7,0.2 -0.7,0.7 v 0.9 c 0,0 0,0.1 -0.1,0.1 h -0.4 c 0,0 -0.1,0 -0.1,-0.1 v -2.1 c 0,0 0,-0.1 0.1,-0.1 H 13 c 0,0 0.1,0 0.1,0.1 v 0.5 c 0.3,-0.4 0.6,-0.6 0.8,-0.6 z"
   id="path76"
   inkscape:connector-curvature="0"
   style="fill:#010202" />
				<path
   class="st1"
   d="m 16.2,49.9 c 0,0.5 -0.5,0.7 -1,0.7 -0.3,0 -0.6,-0.1 -0.9,-0.3 0,0 -0.1,-0.1 0,-0.1 l 0.1,-0.3 c 0,0 0.1,-0.1 0.1,0 0.2,0.1 0.4,0.2 0.7,0.2 0.3,0 0.5,-0.1 0.5,-0.2 0,-0.4 -1.3,-0.1 -1.3,-1 0,-0.4 0.4,-0.7 1,-0.7 0.3,0 0.5,0.1 0.8,0.2 0,0 0.1,0.1 0,0.1 L 16,48.8 c 0,0 0,0.1 -0.1,0 -0.1,-0.1 -0.3,-0.2 -0.6,-0.2 -0.3,0 -0.5,0.1 -0.5,0.2 0.1,0.5 1.4,0.2 1.4,1.1 z"
   id="path78"
   inkscape:connector-curvature="0"
   style="fill:#010202" />
				<path
   class="st1"
   d="m 16.5,50.5 v 0 c 0,-0.1 0,-0.1 0,0 l 1.3,-1.7 h -1.1 c 0,0 -0.1,0 -0.1,-0.1 v -0.3 c 0,0 0,-0.1 0.1,-0.1 h 1.9 c 0,0 0.1,0 0.1,0.1 v 0 c 0,0 0,0 0,0.1 l -1.3,1.6 h 1.2 c 0,0 0.1,0 0.1,0.1 v 0.3 c 0,0 0,0.1 -0.1,0.1 l -2.1,-0.1 c 0.1,0 0,0 0,0 z"
   id="path80"
   inkscape:connector-curvature="0"
   style="fill:#010202" />
				<path
   class="st1"
   d="m 19,49.4 c 0,-0.7 0.5,-1.2 1.1,-1.2 0.4,0 0.6,0.2 0.8,0.4 v -0.3 c 0,0 0,-0.1 0.1,-0.1 h 0.3 c 0,0 0.1,0 0.1,0.1 v 2.1 c 0,0 0,0.1 -0.1,0.1 H 21 c 0,0 -0.1,0 -0.1,-0.1 v -0.3 c -0.2,0.3 -0.4,0.4 -0.8,0.4 C 19.6,50.6 19,50.1 19,49.4 Z m 0.6,0 c 0,0.5 0.3,0.7 0.7,0.7 0.4,0 0.7,-0.3 0.7,-0.7 0,-0.4 -0.3,-0.7 -0.7,-0.7 -0.4,0 -0.7,0.2 -0.7,0.7 z"
   id="path82"
   inkscape:connector-curvature="0"
   style="fill:#010202" />
				<path
   class="st1"
   d="m 23.7,48.3 v 0 l 0.7,1.4 0.5,-1.3 c 0,-0.1 0,-0.1 0.1,-0.1 h 0.3 c 0.1,0 0.1,0 0.1,0.1 l -0.9,2.1 c 0,0.1 0,0.1 -0.1,0.1 h -0.1 c 0,0 -0.1,0 -0.1,-0.1 L 23.5,49 22.8,50.5 c 0,0 0,0.1 -0.1,0.1 h -0.1 c 0,0 -0.1,0 -0.1,-0.1 l -0.9,-2.1 c 0,-0.1 0,-0.1 0.1,-0.1 H 22 c 0.1,0 0.1,0 0.1,0.1 l 0.5,1.3 0.6,-1.3 c 0.3,-0.1 0.3,-0.1 0.5,-0.1 z"
   id="path84"
   inkscape:connector-curvature="0"
   style="fill:#010202" />
				<path
   class="st1"
   d="m 25.6,49.4 c 0,-0.7 0.5,-1.2 1.1,-1.2 0.4,0 0.6,0.2 0.8,0.4 v -0.3 c 0,0 0,-0.1 0.1,-0.1 H 28 c 0,0 0.1,0 0.1,0.1 v 2.1 c 0,0 0,0.1 -0.1,0.1 h -0.3 c 0,0 -0.1,0 -0.1,-0.1 v -0.3 c -0.2,0.3 -0.4,0.4 -0.8,0.4 -0.6,0.1 -1.2,-0.4 -1.2,-1.1 z m 0.6,0 c 0,0.5 0.3,0.7 0.7,0.7 0.4,0 0.7,-0.3 0.7,-0.7 0,-0.4 -0.3,-0.7 -0.7,-0.7 -0.4,0 -0.7,0.2 -0.7,0.7 z"
   id="path86"
   inkscape:connector-curvature="0"
   style="fill:#010202" />
			</g>
		</g>
	</g>
</g>
</svg>