<?xml version="1.0" encoding="UTF-8"?>
<svg width="24px" height="24px" id="Layer_2" data-name="Layer 2" xmlns="http://www.w3.org/2000/svg" viewBox="0 0 45.34 45.32">
  <g id="_17_lupa" data-name="17_lupa">
    <path id="Path_1349" data-name="Path 1349" d="M43.56,45.32c-.52,0-1.02-.22-1.36-.62l-13.28-12.2c-7.97,6-19.3,4.39-25.29-3.58C-2.37,20.95-.76,9.62,7.21,3.63,15.18-2.37,26.51-.76,32.5,7.21c5.17,6.88,4.77,16.45-.95,22.87l13.21,12.14s.14.15.15.16c.64.75.55,1.88-.2,2.52-.32.28-.73.43-1.16.43h0ZM18.08,3.56c-8,.18-14.34,6.82-14.16,14.83.18,7.74,6.41,13.98,14.16,14.16v.97-.97c8-.18,14.34-6.82,14.16-14.83-.18-7.74-6.41-13.98-14.16-14.16Z" style="fill: #707070; fill-rule: evenodd;"/>
  </g>
</svg>