<svg xmlns="http://www.w3.org/2000/svg" width="21.662" height="30.7" viewBox="0 0 21.662 30.7">
  <path id="Exclusion_1" data-name="Exclusion 1" d="M-2622.44,12997.215a.968.968,0,0,1-.728-.333c-.413-.472-10.105-11.64-10.105-19.248a11.21,11.21,0,0,1,3.177-7.859,10.636,10.636,0,0,1,7.656-3.26,10.63,10.63,0,0,1,7.654,3.26,11.211,11.211,0,0,1,3.175,7.859,16.039,16.039,0,0,1-1.521,6.15,41.857,41.857,0,0,1-3.377,6.15,67.613,67.613,0,0,1-5.208,6.947A.965.965,0,0,1-2622.44,12997.215Zm.02-24.108a3.619,3.619,0,0,0-3.569,3.66,3.621,3.621,0,0,0,3.569,3.663,3.619,3.619,0,0,0,3.565-3.663A3.618,3.618,0,0,0-2622.421,12973.106Z" transform="translate(2633.273 -12966.515)" fill="#1c7c97"/>
</svg>
