<?xml version="1.0" encoding="UTF-8"?>
<svg height="21px" width="21px" id="Layer_2" data-name="Layer 2" xmlns="http://www.w3.org/2000/svg" viewBox="0 0 44.9 44.9">
  <g id="_18_help" data-name="18_help">
    <g>
      <path id="Path_1376" data-name="Path 1376" d="M19.77,25.16h3.86c-.36-3.56,4.13-4.67,4.13-8.38s-2.45-5.12-5.66-5.12c-2.21.02-4.3,1.02-5.72,2.72l2.42,2.21c.67-.82,1.66-1.32,2.72-1.38.98-.12,1.88.59,2,1.57.01.1.02.21,0,.31,0,2.24-4.37,3.95-3.77,8.05ZM21.69,32.43c1.47,0,2.66-1.18,2.66-2.65,0-.03,0-.07,0-.1.06-1.47-1.07-2.71-2.54-2.78-.04,0-.08,0-.12,0-1.46,0-2.64,1.18-2.64,2.63,0,.05,0,.1,0,.14-.07,1.45,1.05,2.68,2.5,2.75.04,0,.09,0,.13,0h0Z" style="fill: currentColor;"/>
      <g id="Ellipse_245" data-name="Ellipse 245">
        <circle cx="22.45" cy="22.45" r="22.45" style="fill: none;"/>
        <path d="M22.45,44.9C10.07,44.9,0,34.83,0,22.45S10.07,0,22.45,0s22.45,10.07,22.45,22.45-10.07,22.45-22.45,22.45ZM22.45,2.14C11.25,2.14,2.14,11.25,2.14,22.45s9.11,20.31,20.31,20.31,20.31-9.11,20.31-20.31S33.65,2.14,22.45,2.14Z" style="fill: currentColor;"/>
      </g>
    </g>
  </g>
</svg>