<?xml version="1.0" encoding="UTF-8"?>
<svg width="24px" height="24px" id="Layer_2" data-name="Layer 2" xmlns="http://www.w3.org/2000/svg" viewBox="0 0 41.53 42.78">
  <g id="_19_max" data-name="19_max">
    <g>
      <path d="M39.27.03l-10.04,1.67c-.4.07-.76.26-1.05.54-.76.76-.76,1.98,0,2.74l3.5,3.5-8.89,8.89c-.38.38-.38.99,0,1.37.19.19.44.28.68.28s.5-.09.68-.28l8.89-8.89,3.5,3.5c.28.28.65.47,1.05.54,1.05.18,2.05-.54,2.23-1.59l1.67-10.04c.03-.21.03-.42,0-.63-.18-1.05-1.17-1.77-2.23-1.59Z" style="fill: currentColor;"/>
      <path d="M17.37,24.05l-8.89,8.89-3.5-3.5c-.28-.28-.65-.47-1.05-.54-1.05-.18-2.05.54-2.23,1.59L.03,40.53c-.03.21-.03.42,0,.63.18,1.05,1.17,1.77,2.23,1.59l10.04-1.67c.4-.07.76-.26,1.05-.54.76-.76.76-1.98,0-2.74l-3.5-3.5,8.89-8.89c.38-.38.38-.99,0-1.37s-.99-.38-1.37,0Z" style="fill: currentColor;"/>
    </g>
  </g>
</svg>