<svg xmlns="http://www.w3.org/2000/svg" width="17" height="14" viewBox="0 0 17 14">
  <g id="Group_290" data-name="Group 290" transform="translate(-1350 -929)">
    <g id="Rectangle_312" data-name="Rectangle 312" transform="translate(1350 929)" fill="none" stroke="#fff" stroke-width="1">
      <rect width="17" height="11" rx="3" stroke="none"/>
      <rect x="0.5" y="0.5" width="16" height="10" rx="2.5" fill="none"/>
    </g>
    <g id="Rectangle_313" data-name="Rectangle 313" transform="translate(1356 939)" fill="#fff" stroke="#fff" stroke-width="1">
      <rect width="5" height="4" stroke="none"/>
      <rect x="0.5" y="0.5" width="4" height="3" fill="none"/>
    </g>
    <line id="Line_110" data-name="Line 110" x2="13" transform="translate(1352 942.5)" fill="none" stroke="#fff" stroke-linecap="round" stroke-width="1"/>
    <path id="Rectangle_314" data-name="Rectangle 314" d="M0,0H17a0,0,0,0,1,0,0V0a3,3,0,0,1-3,3H3A3,3,0,0,1,0,0V0A0,0,0,0,1,0,0Z" transform="translate(1350 937)" fill="#fff"/>
  </g>
</svg>
