<svg xmlns="http://www.w3.org/2000/svg" width="12.657" height="12.657" viewBox="0 0 12.657 12.657">
  <path id="Pencil" d="M12.922,1.788a2.517,2.517,0,0,0-3.556,0L2.392,8.762a.424.424,0,0,0-.106.178L1.018,13.166a.423.423,0,0,0,.526.526l4.227-1.268a.424.424,0,0,0,.178-.106l6.974-6.974A2.517,2.517,0,0,0,12.922,1.788ZM5.861,11.211,3.5,8.85l4.9-4.9,2.361,2.361ZM2.99,9.535l2.186,2.186-3.122.936Zm9.335-4.788-.969.969L8.994,3.355l.969-.969a1.669,1.669,0,0,1,2.361,2.361Z" transform="translate(-1 -1.053)" fill="#1c7c97"/>
</svg>
