<svg xmlns="http://www.w3.org/2000/svg" width="57.034" height="57.034" viewBox="0 0 57.034 57.034">
  <g id="Ellipse_70" data-name="Ellipse 70" fill="none" stroke="#1c7c97" stroke-width="2">
    <circle cx="28.517" cy="28.517" r="28.517" stroke="none"/>
    <circle cx="28.517" cy="28.517" r="27.517" fill="none"/>
  </g>
  <path id="Path_420" data-name="Path 420" d="M1.626-19.385a6.531,6.531,0,0,1,1.1-3.478,8.486,8.486,0,0,1,3.216-2.918,10.118,10.118,0,0,1,4.932-1.156,10.53,10.53,0,0,1,4.625.967,7.5,7.5,0,0,1,3.1,2.629,6.447,6.447,0,0,1,1.093,3.613,5.587,5.587,0,0,1-.623,2.692,8.239,8.239,0,0,1-1.481,2q-.858.84-3.08,2.827a12.541,12.541,0,0,0-.985.985,4,4,0,0,0-.551.777,3.812,3.812,0,0,0-.28.7q-.1.352-.3,1.238a2.011,2.011,0,0,1-2.15,1.879,2.2,2.2,0,0,1-1.581-.614,2.413,2.413,0,0,1-.641-1.825,6.721,6.721,0,0,1,.47-2.629,6.673,6.673,0,0,1,1.247-1.951,28.6,28.6,0,0,1,2.1-2q1.156-1.012,1.671-1.527a5.182,5.182,0,0,0,.867-1.147,2.775,2.775,0,0,0,.352-1.373,3.193,3.193,0,0,0-1.075-2.439,3.924,3.924,0,0,0-2.773-.994,3.837,3.837,0,0,0-2.927,1,8,8,0,0,0-1.59,2.954q-.614,2.042-2.331,2.042a2.291,2.291,0,0,1-1.707-.714A2.183,2.183,0,0,1,1.626-19.385ZM10.442.416A2.843,2.843,0,0,1,8.518-.3a2.5,2.5,0,0,1-.822-2,2.572,2.572,0,0,1,.795-1.915,2.685,2.685,0,0,1,1.951-.777,2.6,2.6,0,0,1,1.915.777,2.6,2.6,0,0,1,.777,1.915,2.522,2.522,0,0,1-.813,1.987A2.743,2.743,0,0,1,10.442.416Z" transform="translate(18 40.518)" fill="#1c7c97" stroke="rgba(0,0,0,0)" stroke-width="1"/>
</svg>
