<svg xmlns="http://www.w3.org/2000/svg" width="108.909" height="124.001" viewBox="0 0 108.909 124.001">
  <g id="Group_578" data-name="Group 578" transform="translate(-906 -129.999)">
    <path id="Path_4" data-name="Path 4" d="M810.411,557.355c-.056-.572-.818-.466-.9-1.038.049-.762-.843-.982-1.121-1.555a11.649,11.649,0,0,1-1.694-1.308c-.459-.673-1.1-1.023-1.571-1.67-.237-.294-.115-.743-.466-.965-.458-.156-.794-.654-1.2-.9a1.354,1.354,0,0,1-1.35-.687,2.008,2.008,0,0,0-.417-1.514c-.2-1.17-.974-2.1-1.293-3.223a8.072,8.072,0,0,1-.965-2.1l-.786-.843a6.358,6.358,0,0,1-.956-1.808c-.23-1.048-1.311-1.742-1.5-2.806-.245-1.236-.989-2.259-1.194-3.51a18.142,18.142,0,0,0-1.079-3.109,6.618,6.618,0,0,1-.115-2.291c-.131-.474-.508-.833-.515-1.358a16.02,16.02,0,0,1-.958-2.61c.024-.688-.719-1.055-.81-1.694.008-.711-.646-1.153-.532-1.922-.287-.606-.6-1.2-.842-1.825a2.83,2.83,0,0,1-.606-1.767,5.769,5.769,0,0,0-.548-1.825c-.164-.516-.09-1.121-.221-1.652,0-.549-.3-.983-.27-1.547a7.8,7.8,0,0,1-.2-1.472,14.106,14.106,0,0,1-.492-1.875c.095-.149-.072-.261,0-.416a9.563,9.563,0,0,1-.318-1.106c-.176-.136-.132-.385-.259-.564a5.487,5.487,0,0,1-.184-.777.814.814,0,0,1-.217-.608c-.11-.138-.046-.361-.194-.467-.078-.316-.309-.58-.387-.9-.152-.207-.225-.4-.4-.611a5.961,5.961,0,0,1-1.064-.773c-.077-.255-.462-.265-.484-.569-.386-.374-.924-.492-1.209-1.009a.353.353,0,0,0-.114-.323c-.08-.2.144-.265.134-.445-.122-.2,0-.4-.037-.613a1.559,1.559,0,0,0,.4-.634c.229-.184.092-.525.273-.753,0-.211.072-.346.08-.551a1.78,1.78,0,0,1,.394-.98c.1-.092.008-.21-.028-.309-.117-.138-.321-.116-.5-.141a.234.234,0,0,0-.109.251c-.027.318-.462.331-.526.59-.255.2-.123.569-.306.8-.359.157-.33.665-.56.971a1.666,1.666,0,0,0-.319.785c-.075.093.017.249-.077.327.028.284-.178.481-.273.7.03.05-.076.136.023.179-.095.2.033.392.117.566-.052.241.208.4.273.584.381.2.705.665,1.093.885a4.736,4.736,0,0,1,.822.827c.338.2.353.548.63.824.567.209.654.793.878,1.272a5.459,5.459,0,0,1,.288.939c.266.189.044.538.278.745,0,.186.138.275.13.466l-.031.174a1.709,1.709,0,0,0-.171-.058c-.343-.262-.859-.106-1.219.017-.442.147-.769-.238-1.178-.295a12.552,12.552,0,0,1-1.742,0c-.181-.066-.343-.164-.532-.213-.417.311-.728.883-1.277.982a3.9,3.9,0,0,1-1.61.45,2.46,2.46,0,0,1-1.155.278c-.655.263-1.506.033-2.16.271a2.481,2.481,0,0,1-2.258.769,9.971,9.971,0,0,1-1.636.139c-.548.147-.966.654-1.506.826-.392.229-.147.729-.491.982-.72.271-.654,1.08-1.006,1.6-.115.77.213,1.384.1,2.129a6.34,6.34,0,0,0,.492,1.546c.074.294.27.59.138.925-.163.466.206.834.139,1.292-.147.133-.032.369-.179.491a2.435,2.435,0,0,1-.156.547c-.009.247-.139.442-.115.688.1.573.343,1.08.45,1.653.156.237.312.474.467.7.008.532.213.98.262,1.5.344.383-.131.719-.262,1.055.066.99.908,1.661,1.146,2.577a9.366,9.366,0,0,1,1.546,2.864,22.41,22.41,0,0,0,1.668,3.853c.663,1.2,1.457,2.349,2.12,3.551a7.185,7.185,0,0,1,.924,2c-.4.614.532.826.573,1.35l-.081.572c.016.549.5.933.769,1.334a6.722,6.722,0,0,0,1.276,2.046c.286.972,1.407,1.512,1.841,2.412.7,1.064,1.424,2.111,2.1,3.184.278.392.8.687.884,1.154,1.244,1.684,2.952,2.822,4.14,4.557,1.522,1.971,3.576,3.379,5.245,5.259a20.344,20.344,0,0,1,3.436,3.535c.328.465.794.768,1.1,1.236a1.274,1.274,0,0,0,.86,1.022c.5.442,1.3.14,1.922.254.336-.114.483-.514.59-.818.082-.672.793-.926,1.259-1.277.614-.409,1.359.222,1.947-.237.066-.2-.048-.393-.04-.573.024-.187.3-.36.138-.531-.13-.261-.5-.4-.515-.745a2.27,2.27,0,0,0,.024-.941,1.116,1.116,0,0,1,1.015-.532c.605.517,1.48-.007,2.159.295.426-.016.68.425,1.121.3.279-.328.728-.263,1.022-.55.4-.3.009-.719-.081-1.039-.025-.516-.352-.9-.369-1.414-.058-.942,1.129-.95,1.293-1.751.336-.557-.213-1.047-.058-1.686" transform="translate(144.683 -314.859)" fill="#0176ac"/>
    <path id="Path_5" data-name="Path 5" d="M799.469,296.932c-.135-.2-.452-.384-.478-.658a1.025,1.025,0,0,0-1-.443c-.359-.291-.793-.445-1.128-.744-.512.042-.768-.5-1.254-.53a3.016,3.016,0,0,0-1.572-.35c-.188-.188-.436-.256-.582-.5a.733.733,0,0,1-.69,0c-.436-.478-1.111-.179-1.623-.47-.752.035-1.255-.521-1.99-.555-.829-.264-1.785-.222-2.638-.427a20.646,20.646,0,0,0-4.876-.776c-.965-.162-1.93-.112-2.912-.2-.487-.18-1.093-.061-1.562-.265-1.375-.1-2.673-.385-4.1-.392a1.96,1.96,0,0,1-.717.085,1.624,1.624,0,0,1-.675-.581c-.478-.214-.683.376-1.1.376-.205.026-.487-.06-.684.059a3.906,3.906,0,0,0-1.776-.042c-.264-.179-.607.009-.9-.086-.5.205-1.075-.231-1.6.069a5.653,5.653,0,0,1-1.272-.145c-.248.2-.5-.051-.76-.06-.18-.026-.231.188-.35.281-.188.061-.368.257-.589.129-.538.23-1.024-.2-1.563.034-.333-.052-.75-.53-1.025,0-.17.094-.3-.06-.444-.1-.153.17-.358.248-.453.453-.461.205-.8.717-1.417.555-.266.1-.163.384-.248.572a.653.653,0,0,1-.512.085c-.026.1-.18.188-.18.326.24.358-.214.512-.308.8-.154.35.154.556.308.795.044.214.325.325.265.581a3.41,3.41,0,0,1,.512,1.041.313.313,0,0,0,.393.206c.2-.188.5-.137.692-.367a.894.894,0,0,1,.7.1c.735-.162,1.555-.093,2.3-.23.265-.308.735-.18,1.1-.18.129.042.231.154.394.145.383-.043.767-.094,1.143-.17a9.062,9.062,0,0,1,2.895-.137c.256.1.632-.052.853.137.326-.213.659.076,1.008-.018a1.5,1.5,0,0,1,1.084-.188,2.952,2.952,0,0,1,1.521.206.6.6,0,0,1,.247-.308c.29-.111.521.094.691.273a.745.745,0,0,1,.538,0c.512.368,1.17.043,1.759.241a25.061,25.061,0,0,0,3.091.145c1.2.059,2.246.5,3.45.538,1.051.239,2.187.281,3.211.572.991.017,1.837.358,2.793.452.274.23.674.137,1,.238.256-.145.453.1.7.1.231.067.41.273.632.35.453-.154.65.427,1.111.307.426.341.972.436,1.418.76.307-.137.563.085.878.043.205.042.384.239.615.162.461.247,1.093.059,1.452.555.289.188.46-.179.742-.146.367-.067.5-.495.82-.657.435.179.836-.154,1.288-.077.428.077.573-.452.9-.581.018-.351.487-.419.555-.734-.145-.172-.052-.462-.077-.658" transform="translate(153.422 -160.08)" fill="#0176ac"/>
    <path id="Path_6" data-name="Path 6" d="M746.915,341.116c-.052-.434-.677-.446-.778-.868-.327-.232-.377-.641-.766-.825-.191-.213-.406-.271-.571-.452a4.134,4.134,0,0,0-1.11-.489c-.457-.084-.459-.562-.617-.911a1.737,1.737,0,0,0-.628-.942,4.189,4.189,0,0,0-.277-.747c.053-.278-.187-.446-.1-.712s-.137-.633.156-.8a1.448,1.448,0,0,1,.35-.876c.306-.251.1-.73.283-1.038,0-.135.066-.248.06-.384.231-.239.049-.564.126-.848.163-.158.054-.433.217-.593-.053-.272.24-.417.144-.7.244-.227.13-.637.32-.9.367-.156.438-.528.559-.854a9.134,9.134,0,0,1,.427-1.154h.012v-.063a4.771,4.771,0,0,1,.336-.654,2.817,2.817,0,0,1,.55-1.121c.175-.252-.282-.386-.044-.626-.054-.143-.215-.12-.306-.27-.129-.119-.04-.285-.083-.416a5.838,5.838,0,0,1,.231-.845c-.047-.2-.3-.1-.431-.166a1.028,1.028,0,0,0-.739.792c-.052.167-.306.239-.21.475-.2.265-.212.624-.474.875a1.614,1.614,0,0,1-.059.3c-.053.333-.26.561-.338.888-.015.259-.216.462-.218.741a5.2,5.2,0,0,0-.364,1.037c-.338.244-.207.747-.458,1.06.01.273-.3.332-.272.611a3.6,3.6,0,0,0-.264.963,1.14,1.14,0,0,0-.142.563c-.076.191-.22.343-.167.592-.046.2-.251.363-.155.593-.194.178-.061.445-.187.655l-.086,2.327.049.106a1.186,1.186,0,0,0,.216.7.655.655,0,0,0,.112.564c.029.242.212.417.272.641a.685.685,0,0,0,.046.3,1.916,1.916,0,0,1,.462.853,11.312,11.312,0,0,0,1.252,1.159,6.017,6.017,0,0,1,.575.674c.418.364.886.728,1.241,1.065.059.206.307.289.391.5a3.222,3.222,0,0,0,.874.616c.211-.012.3.238.531.166a5.546,5.546,0,0,1,.85-.046.615.615,0,0,0,.468-.429c-.148-.708-.936-.6-1.271-1.086" transform="translate(165.152 -184.728)" fill="#0176ac"/>
    <path id="Path_7" data-name="Path 7" d="M766.313,446.691c.122.132.034.291,0,.427a.207.207,0,0,1,0,.223c-.155.08-.372.016-.49.163-.213.172-.236.592-.589.645-.219.109-.159.345-.284.493a1.714,1.714,0,0,0-.307,1.037c-.3.393-.067.954-.164,1.435.035.241.168.5.047.744.179.17.37.295.367.575.11.161.3.213.417.357l.459.067a1.347,1.347,0,0,0,1.186.267,6.8,6.8,0,0,1,.959-.424c.186-.079.153-.419.462-.306.279-.034.442-.261.733-.265a2.865,2.865,0,0,0,.823-.512c.138-.14.375-.237.494-.422.182-.221.266-.567.6-.651a.227.227,0,0,1,.237-.084c.1.181.428-.125.37.208.1.089.227.133.207.276-.12.158-.122.375-.259.529a2.61,2.61,0,0,0,.281,1.607c.245.257.321.684.692.824a1.873,1.873,0,0,1,.813.368c.3.052.5.389.769.5.2-.023.314.158.519.141a1.693,1.693,0,0,0,1.191-.111,3.984,3.984,0,0,0,2.1-1.787.921.921,0,0,1,.5-.28.626.626,0,0,1,.56.333c.139.263-.08.52-.021.8-.125.148-.109.365-.29.474-.028.347-.474.335-.57.62-.055.005-.087.067-.131.1-.053.26-.357.314-.525.5-.3.065-.451.367-.778.352-.169.215-.5.2-.765.277a3.263,3.263,0,0,1-1.933-.008c-.39.1-.616-.18-.944-.233-.3-.2-.754-.188-.887-.529a11.021,11.021,0,0,0-.926-.828.482.482,0,0,1-.1-.285c-.275-.3-.308-.76-.689-.974-.31-.078-.51.124-.776.159-.349.126-.538.415-.928.479-.289.332-.777.178-1.089.466-.484.095-1,.095-1.5.146a1.356,1.356,0,0,1-1.1-.2c-.055-.156-.259-.152-.369-.271a3.3,3.3,0,0,1-1.147-1.319c0-.223-.181-.374-.2-.583a2.959,2.959,0,0,1-.251-1.459,1.04,1.04,0,0,1,.1-1c-.017-.156.152-.234.178-.369a3.74,3.74,0,0,1,.189-.977,1.72,1.72,0,0,0,.547-.8c.3-.307.566-.781,1.049-.721.15-.122.245-.387.506-.348a.913.913,0,0,1,.667.155" transform="translate(148.498 -277.717)" fill="#0176ac"/>
    <path id="Path_8" data-name="Path 8" d="M788.985,523.428l-.5,1.5.5.665,1-.665.166-1.5-.665-.167Z" transform="translate(129.333 -335.41)" fill="#0176ac"/>
    <path id="Path_9" data-name="Path 9" d="M1114.984,592.579a.489.489,0,0,0,.12-.393c-.018-.1-.145-.153-.222-.2-.42.119-.708-.384-1.084-.059-.624.291-.265.9-.394,1.434.069.308-.018.71.35.88.256.342.632.213.982.325a.674.674,0,0,0,.47-.547,1.68,1.68,0,0,1-.222-1.435" transform="translate(-114.973 -386.953)" fill="#0176ac"/>
    <path id="Path_10" data-name="Path 10" d="M1127.628,605.915c.487-.478.9-1.05,1.563-1.188a2.91,2.91,0,0,1,1.374-.289,1.48,1.48,0,0,1,.854.64c.008.162.171.333.025.486a4.034,4.034,0,0,1-3.646.76C1127.688,606.214,1127.5,606.077,1127.628,605.915Zm4.884,6.6c-.257-.061-.358.161-.512.29a.352.352,0,0,1-.333-.025,2.913,2.913,0,0,1-2.092.435,3.767,3.767,0,0,1-2.357-1.948,4.2,4.2,0,0,1-.308-1.314c.034-.606-.136-1.264-.059-1.844.093-.179-.027-.444.187-.572a10.263,10.263,0,0,1,1.513.077,6.576,6.576,0,0,0,3.175-.956c.573-.443,1.487-.922,1.316-1.768a2.882,2.882,0,0,0-.82-.98,4.347,4.347,0,0,0-4.363.306,4.062,4.062,0,0,0-2.05,2.358,6.8,6.8,0,0,0-.6,3.295l.06.146a3.952,3.952,0,0,0,1.05,2.767,4.576,4.576,0,0,0,4.713,1.358c.136-.016.223-.163.385-.1a5.583,5.583,0,0,0,1.093-.639,1.939,1.939,0,0,1,.179-.453c.094-.179-.059-.307-.179-.426" transform="translate(-123.851 -395.702)" fill="#0176ac"/>
    <path id="Path_11" data-name="Path 11" d="M1067.927,614.3c-.06-.138-.052-.308-.162-.428-.077-.53-.512-.938-.555-1.451a1.02,1.02,0,0,0-1.152-.274c-.214.249-.5.488-.487.846.044.348.393.57.589.862a12.184,12.184,0,0,1,1.17,5.2,6.726,6.726,0,0,1-.247,1.783c-.059.069-.188.043-.265.017a7,7,0,0,1-2.682-2.314,4.442,4.442,0,0,1-.469-1.682c-.146-.393-.019-.905-.291-1.247-.375-.086-.974-.222-1.272.12a.942.942,0,0,0-.222.615c.155.633.172,1.307.385,1.913a1.11,1.11,0,0,0,.17.513,6.2,6.2,0,0,1-.555,3.177c-.248.189-.306.614-.674.589a3.4,3.4,0,0,1-1.562-1.408,11.434,11.434,0,0,1-1.7-5.047c-.2-.359-.733-.256-1.125-.247a.766.766,0,0,0-.41.657c.136.743.212,1.52.41,2.237a14.968,14.968,0,0,0,1.784,3.663,3.012,3.012,0,0,0,2.741,1.3,3.367,3.367,0,0,0,.7-.393,5.594,5.594,0,0,0,1.433-2.168c.094-.163.017-.384.189-.513a.478.478,0,0,1,.163.017,8.146,8.146,0,0,0,1.2.939,10.141,10.141,0,0,0,1.519.615c.863.222,1.307-.606,1.759-1.128a6.955,6.955,0,0,0,.411-3.313,10.734,10.734,0,0,0-.795-3.449" transform="translate(-72.118 -402.185)" fill="#0176ac"/>
    <path id="Path_12" data-name="Path 12" d="M1111.025,614.491a5.057,5.057,0,0,1-.017-1.289.448.448,0,0,0-.453-.264,1.224,1.224,0,0,0-1,.136.8.8,0,0,0-.248.845,10.839,10.839,0,0,1,.324,2.067,10,10,0,0,0,.128,1.332c.06.9.367,1.723.367,2.62a1.514,1.514,0,0,0,.248.453,1.41,1.41,0,0,0,.631.026c.24-.351.64-.453.88-.8.077-.223-.128-.385-.2-.573a22.469,22.469,0,0,1-.658-4.551" transform="translate(-111.86 -402.801)" fill="#0176ac"/>
    <path id="Path_13" data-name="Path 13" d="M1027.744,638.651a7.873,7.873,0,0,1-1.358.614,13.4,13.4,0,0,1-2.288.452,1.88,1.88,0,0,1-1.606-1.024c-.154-.332.188-.511.308-.76a5.074,5.074,0,0,1,3.612-1.229,2.428,2.428,0,0,1,.939.332c.129.223.112.513.368.657.137.035.307,0,.409.1A5.737,5.737,0,0,1,1027.744,638.651Zm1-1.205c.025-.136.179-.136.248-.247-.018-.24.289-.359.2-.6-.35-.248-.29-.709-.632-.982a8.086,8.086,0,0,0-3.714-4.791,3.793,3.793,0,0,0-2.724-.247,2.735,2.735,0,0,0-1.29,1.819,1.066,1.066,0,0,0,.88.308l.367-.18a1.727,1.727,0,0,0,.308-.717c.094-.272.393-.265.615-.229,1.939.374,3.118,2.382,3.92,3.979l.043.187a.23.23,0,0,1-.171.12,7.139,7.139,0,0,0-2.869.307,8.949,8.949,0,0,0-1.64.8c-.538.487-1.281.9-1.468,1.615a2.036,2.036,0,0,0,1.2,1.724,7.021,7.021,0,0,0,5-.231c.376-.17.76-.307,1.127-.512a1.761,1.761,0,0,0,1.187-.795,4.1,4.1,0,0,1,.06-.674c-.111-.308-.581-.308-.657-.659" transform="translate(-45.359 -415.979)" fill="#0176ac"/>
    <path id="Path_14" data-name="Path 14" d="M976.367,650.405a2.192,2.192,0,0,1,.042-2.375,2.315,2.315,0,0,0,.76-.332c.068-.292.435-.257.512-.53-.282-.187-.512-.478-.863-.5-.4-.017-.683.265-1.025.393a4.037,4.037,0,0,0-1.246,1.947,3.788,3.788,0,0,0,.264,1.964c.4,1.179,1.393,2.05,1.947,3.16a12.027,12.027,0,0,1,1.375,2.374,3.689,3.689,0,0,1-.274,3.484c-.136.624-.8,1.024-.938,1.639.017.161.212.231.324.231,1.384-.034,1.716-1.614,2.279-2.545a4.622,4.622,0,0,0-.29-4.525c-.811-1.538-2.049-2.853-2.869-4.389" transform="translate(-10.565 -428.203)" fill="#0176ac"/>
    <path id="Path_15" data-name="Path 15" d="M1000.256,655.481a4.208,4.208,0,0,1-2.238.265,2.057,2.057,0,0,1-1.511-.35c-1-.836-.222-2.074.016-3.014.445-.795.727-1.648,1.188-2.434-.052-.419.3-.693.291-1.069a2.317,2.317,0,0,0,.221-.939,1.313,1.313,0,0,0-.734-.844l-.349-.061a3.529,3.529,0,0,0-1.947.017,23.6,23.6,0,0,0-2.621.991.964.964,0,0,0-.539.717c-.043.308.3.273.435.469.333.137.538-.136.776-.289a6.139,6.139,0,0,1,1.01-.513c.691-.145,1.485-.6,2.185-.162a.868.868,0,0,1,.188.6,17.224,17.224,0,0,1-1.128,3.032,7.6,7.6,0,0,0-1.007,3.092c.068.144-.051.366.1.47.068.409.487.657.785.888a4.328,4.328,0,0,0,.939.342,15.217,15.217,0,0,0,3.57.043l.957-.676c.017-.084-.026-.134-.034-.2a.626.626,0,0,0-.555-.366" transform="translate(-23.711 -428.378)" fill="#0176ac"/>
    <path id="Path_16" data-name="Path 16" d="M953.478,665.954a.855.855,0,0,0-.88.469c-.3.743-.845,1.384-1.1,2.135-.2.334-.179.769-.375,1.1-.085.122-.2-.025-.239-.1a3.869,3.869,0,0,1-.452-1.657,1.162,1.162,0,0,1-.188-.427c-.06-.273-.35-.341-.589-.333-.428-.1-.743.282-.966.6a1.106,1.106,0,0,0,.223.879,52.767,52.767,0,0,0,2.253,5.183,6.872,6.872,0,0,1,.6,1.17c.2.291.411.487.794.393a2.5,2.5,0,0,0,.924-1.008c.093-.325-.239-.476-.41-.716a5.962,5.962,0,0,1,.375-6.4c.256-.351.828-.521.795-1.025a.787.787,0,0,0-.76-.265" transform="translate(8.901 -442.686)" fill="#0176ac"/>
    <path id="Path_17" data-name="Path 17" d="M918.241,686.01c.035.7-.538,1.179-1.041,1.6a6.592,6.592,0,0,1-2.828.984,1.847,1.847,0,0,1-1.315-.965c-.119-.427.128-.752.188-1.128.743-1.332,2.306-1.4,3.442-2.152l.632-.428c.238-.042.23.233.349.351C917.857,684.84,918.48,685.352,918.241,686.01Zm1.58-.863c-.137-.554-.632-.981-.8-1.493a7.822,7.822,0,0,0-3-3.323,5.2,5.2,0,0,0-1.99-.513,4.926,4.926,0,0,0-3.117,1.435c-.606.562-.829,1.289-1.375,1.886-.086.214-.069.479-.162.693.154.239.324.546.657.538.88-.341.76-1.349,1.247-1.974a3.68,3.68,0,0,1,2.936-1.246,5.206,5.206,0,0,1,1.964,1.041l.821.923a.2.2,0,0,1-.086.249c-1.794.775-3.928,1.116-5,3.132-.086.179-.077.394-.206.554a1.906,1.906,0,0,0,.308,1.863,4.133,4.133,0,0,0,1.477.785c.9.206,1.622-.273,2.46-.35.256-.163.624-.086.853-.308a13.3,13.3,0,0,0,3.057-2.255c.453-.145.137-.683.349-.964.061-.307-.187-.5-.392-.675" transform="translate(38.441 -453.127)" fill="#0176ac"/>
    <path id="Path_18" data-name="Path 18" d="M980.427,491.1c-.111.025-.1.153-.119.247.025.086.128.1.2.12.05-.033.136-.085.1-.163-.051-.076-.06-.212-.187-.2" transform="translate(-14.898 -311.229)" fill="#e5372a"/>
    <path id="Path_19" data-name="Path 19" d="M858.821,694.685c.531.515.457,1.284.785,1.882a4.577,4.577,0,0,1,.312.842l.057.042c-.107.393.18.663.237,1.006a12.46,12.46,0,0,1,.867,4.452c-.263.67-.352,1.571-1.178,1.831a18.353,18.353,0,0,1-2.594-.457c-.516-.155-.867-.7-1.39-.843l-.18.2c.114,1.089.639,2.249.156,3.338-.351.466-.941.449-1.334.867-.457.22-.891-.09-1.375-.041-.687-.245-1.333-.613-2.045-.809-1.17-.794-1.554-2.127-2.176-3.257l-.408-1.08c-.32-.695-.917-1.269-.851-2.118-.18-.328-.688-.648-.368-1.065a.979.979,0,0,1,.98-.523c.631.548.688,1.407,1.155,2.062.629,1.063.793,2.315,1.57,3.314a9.337,9.337,0,0,0,1.5,1.571,1.6,1.6,0,0,0,1.122-.016.745.745,0,0,0,.646-.474c.032-1.213-.049-2.3-.1-3.478-.074-.5-.761-.868-.392-1.432,0-.424-.524-.851-.082-1.236.18-.187.409-.36.646-.253.688.319.728,1.12,1.26,1.588.629.859,1.588,1.113,2.274,1.865a4.438,4.438,0,0,0,1.08.295.633.633,0,0,0,.393-.507c.04-.3-.156-.5-.27-.729-.344-.958-.189-2.128-.589-3.06a15.559,15.559,0,0,0-1.121-2.872c-.09-.335-.262-.81,0-1.121.425-.7.982.05,1.415.222" transform="translate(85.162 -463.916)" fill="#fff"/>
    <path id="Path_20" data-name="Path 20" d="M833.2,653.16c.016.1.068.2,0,.29a9.508,9.508,0,0,0,.572,1.392c.487,2.075,1.649,4.176.905,6.456a1.337,1.337,0,0,1-1.007.793c-1.1-.008-2.434.257-3.356-.307a4.573,4.573,0,0,0-1.478-1.1l-.059.06a3.285,3.285,0,0,1-.265,2.4,2.449,2.449,0,0,1-2.177,1.493,21.556,21.556,0,0,1-2.315-.718,10.181,10.181,0,0,1-1.93-1.862c-.162-.307-.153-.7-.324-1.007.137-.736-.239-1.315-.205-2.033a.659.659,0,0,1,.393-.443c.29-.129.538.111.777.265.359.384.162,1.007.248,1.511a4.318,4.318,0,0,0,1.451,2.426c.752.135,1.291.92,2.151.673.761-.154,1.016-.991,1.291-1.579.05-1.376-.529-2.553-.692-3.877-.119-.316-.384-.682-.171-1.042a.846.846,0,0,1,.435-.351.781.781,0,0,1,.572.1c.358.435.265,1.05.427,1.562a5.058,5.058,0,0,0,2.382,2.725,4.32,4.32,0,0,0,2.707.06,2.554,2.554,0,0,0,.529-1.846,17.067,17.067,0,0,0-1.008-4.363,7.1,7.1,0,0,0-.717-1.417.417.417,0,0,1,.23-.529.535.535,0,0,1,.632.264" transform="translate(104.466 -432.862)" fill="#fff"/>
    <path id="Path_21" data-name="Path 21" d="M874.887,335.1c-.1-.273.264-.436.145-.717l-.658-.735c-.042-.154.009-.282-.128-.377a.664.664,0,0,0-.589.13c-.445.153-.615-.393-.923-.6a4.425,4.425,0,0,1-1.084-.162c-.333-.128-.538.239-.888.085l-.307-.17c-.316-.077-.436.349-.675.5-.272.162-.478-.1-.691-.2-.18-.069-.411-.035-.556-.163-.264-.213-.452.12-.674.179-.273.162-.47-.111-.744-.077a6.709,6.709,0,0,1-1.785.179c-.238.129-.46.427-.776.248-.863-.068-1.64.291-2.537.248-.554.187-1.254.033-1.742.367-1.041.2-2.22.05-3.244.333-.376.086-.777.538-1.162.163l-.306.178c-.324.137-.5-.2-.743-.324a4.332,4.332,0,0,1-.691-.085c-.41-.409-1.034-.307-1.605-.324-.274.017-.487.187-.778.187-.2.154-.229.462-.486.53-.5-.179-.872.231-1.358.207-.153.083-.264.272-.47.221-.324-.085-.529.248-.837.248-.307.3-.743.11-1.153.162-.486.136-1.008-.376-1.349.129-.324.443-.828.179-1.289.221a1.9,1.9,0,0,1-1.315.2c-.162.172-.615.23-.469.573a.517.517,0,0,1-.325.376c-.657.034-1.22.231-1.887.307-.53-.1-.905.3-1.358.445-.947.127-1.776.563-2.741.656l-.64.265a23.811,23.811,0,0,0-2.477.718,20.953,20.953,0,0,0-3.116.888,1.481,1.481,0,0,1-.674.383c-.42-.076-.666.36-1.026.47-.325.324-.768.333-1.144.513-.12.026-.3.12-.231.29-.136.111-.256.256-.452.222-.377.331-.991.179-1.247.717-.086.188-.393.325-.248.555a.328.328,0,0,1-.427.162c-.291.23-.641-.2-.88.145a1.036,1.036,0,0,1-.948.6.241.241,0,0,0-.184.069.611.611,0,0,1-.127-.064c-.24-.066-.313.237-.524.29a1.448,1.448,0,0,0-.766.308c-.817.617-1.786.9-2.4,1.728-.058.285-.447.214-.495.485a3.413,3.413,0,0,0-.645.619,1.679,1.679,0,0,0-.612.513.423.423,0,0,1-.228.4c-.039.2-.25.306-.406.422-.115.3-.475.459-.644.681a5.556,5.556,0,0,1-.807,1.373l-.05.531c.005.075.1.144.091.243-.107.123-.059.334-.056.489-.074.055-.038.191-.027.253.059.23-.023.49.167.684.162.411.338.8.464,1.224.208.126.114.385.16.628.116.181,0,.422.05.608-.338.375-.429.8-.873,1.106-.1.129-.127.3-.239.4a3.736,3.736,0,0,0-1.186.954c-.008.2.2.36.367.481.143-.054.4.053.509-.088a6.588,6.588,0,0,1,.794-.611c.205-.24.577-.174.789-.414.1-.166.4-.014.48-.242a4.032,4.032,0,0,0,.974-.784c-.078-.272.122-.456.26-.617a.729.729,0,0,1,.078-.389c.065-.149-.108-.188-.164-.281.226-.24-.151-.337-.124-.572-.1-.113-.041-.3-.206-.4.021-.272-.268-.418-.215-.7-.174-.095-.1-.3-.176-.4a.489.489,0,0,1,.079-.383c-.159-.256.048-.5.1-.742-.037-.632.475-1.049.519-1.629l.452-.64c.3-.4.939-.363,1.23-.861.31-.054.352-.425.643-.557.041-.052.089-.1.131-.156.091.146.2.354.395.362.4.522,1.12.333,1.452.965a1.239,1.239,0,0,1,.905.76c.188.436.7.47,1.042.717.162.094.171.29.35.35.419.162.282.641.614.879-.094.3.333.4.249.674a2.013,2.013,0,0,0,1.417.555c.146-.008.289-.085.41.06.179.5.871.325.939.9a1.013,1.013,0,0,0,.837.385c.725-.213,1.22.435,1.972.205a3.468,3.468,0,0,0,1.1.161,2.525,2.525,0,0,0,1.008.23c.512.427.957-.179,1.478-.162.436.214.8-.119,1.186-.23.479-.095.734.383,1.213.23.094-.06.256.035.325-.085.008-.12-.145-.17-.188-.264-.06-.112.025-.214.086-.307.733-.316,1.63-.239,2.3-.718.709-.631,1.811-.341,2.562-.88a5.425,5.425,0,0,0,1.989-.555,8.3,8.3,0,0,1,1.7-.615c.811-.111,1.469-.614,2.331-.6a10.988,10.988,0,0,1,2.213-.778c.462-.145,1.034-.016,1.477-.2.991-.393,2.288-.042,3.2-.614a7.367,7.367,0,0,1,1.862-.324c.581,0,1.016-.326,1.579-.351a2.38,2.38,0,0,0,1.682-.366c.521-.034.905-.428,1.453-.411l.511-.581a2.976,2.976,0,0,1,.572-1.1c.086-.341.274-.752.675-.8.145-.078.3.067.436-.043a2.7,2.7,0,0,1,1.067-.649c.435-.2.6-.667,1.059-.8.529.035.777-.606,1.272-.632.479,0,.871-.343,1.358-.188.214.119.308-.1.427-.222a.659.659,0,0,1,.6-.188,1.7,1.7,0,0,0,.368-.41c.033-.248.477-.427.222-.7-.026-.12-.051-.29.06-.384-.051-.333.273-.538.128-.879.051-.222.282-.248.427-.375.367-.214.649.341.981.025.155-.308-.213-.385-.367-.615-.324-.224.119-.453-.145-.7.2-.426.683-.419.965-.76a3.855,3.855,0,0,1,1.87-.2.253.253,0,0,0,.2-.264,2.959,2.959,0,0,0,.342-1.025c-.1-.41.3-.623.555-.836l.059-.351Z" transform="translate(110.249 -192.008)" fill="#f9af36"/>
    <g id="Group_4" data-name="Group 4" transform="translate(933.271 169.549)">
      <path id="Path_22" data-name="Path 22" d="M889.6,464.631c-.077-.213.154-.461-.085-.633a6.089,6.089,0,0,0-.179-1.289c.435-.614-.546-.905-.308-1.537-.222-.316-.205-.734-.58-.981-.163-.649-.949-.633-1.161-1.23a10.69,10.69,0,0,0-1.4-.614c-.436.076-.794-.317-1.247-.146-.059.188-.367.265-.324.454.366.273.878.187,1.245.486a1.456,1.456,0,0,1,1.129.435c.342.154.5.555.905.616.589.1.581.742.751,1.161-.042.3-.358.18-.513.35-.119.264.291.4.411.572.3.367.648.769.538,1.256.221.307.034.64-.129.922-.316.009-.111.35-.341.426-.452-.127-.7-.588-.965-.938-.171-.248-.035-.486.017-.743-.1-.137-.205-.333-.384-.385-.563-.1-.674-.742-1.11-1.008-.205-.282-.633-.452-.615-.836-.043-.189-.248-.163-.35-.308a1.29,1.29,0,0,1-1.145-.247c-.315-.812-1.245-.47-1.758-.965-.479.085-.8-.325-1.315-.205a2.591,2.591,0,0,0-.616-.247c-.513.213-.939-.128-1.452-.1-.163-.06-.333-.214-.511-.1a3.634,3.634,0,0,0-1.128-.076.906.906,0,0,1-.683.12c-.231-.154-.547-.095-.777-.265a6.877,6.877,0,0,0-1.1-.12c-.41.265-.846-.069-1.3.1l-.324-.29a2.536,2.536,0,0,1-.838-.222c-.2-.094-.357-.326-.579-.376a1.114,1.114,0,0,1-1-.12c-.266.068-.35-.282-.6-.248-.386.086-.769.009-1.17.06l-.162.1c-.213.358-.026.793,0,1.169.145.307.494.452.743.674a.55.55,0,0,1,.282.351c.016.367-.385.435-.633.555-.392.136-.572-.377-.965-.309-.282-.29-.726-.016-1.042-.221-.213.23-.486.06-.759.077a6.05,6.05,0,0,0-1.256.6c-.264.026-.461.273-.751.18-.632-.026-.478.921-1.153.76a2.289,2.289,0,0,0-1.127,1.724c-.2.359-.589.641-.692,1.043.172.563-.409.845-.742,1.187.034.222-.17.436.025.614-.042.257.188.556-.127.7-.12.026-.3.06-.385-.058-.051-.112-.171-.2-.128-.351.342-.342-.136-.7.026-1.068-.094-.29.137-.5.2-.759-.068-.111-.017-.384-.248-.325-.333.256-.29.7-.35,1.085-.239.4-.043.983-.247,1.393.161.307.008.751.247,1.024.12.29-.23.511-.017.786-.256.41.384.624.205,1.06a3.915,3.915,0,0,1,.1,1.195c.369.282.086.768.341,1.1.121.153-.042.315-.016.452l.468.427c-.034.776.871,1.162.744,1.972-.077.111-.017.248,0,.367a1.769,1.769,0,0,1,.571.982c-.11.257.128.418.061.676a8.486,8.486,0,0,1,.836,1.784c.3.384.41.845.7,1.229a9.134,9.134,0,0,0,2.373,2.827,14.717,14.717,0,0,0,1.606,1.068,6.65,6.65,0,0,0,3.073,1.23,11.513,11.513,0,0,1,2.289.435,9.909,9.909,0,0,0,1.23.939,1.434,1.434,0,0,0,.718-.1c.068-.093.016-.188,0-.291.178-.341.63-.188.946-.281.214.205.436-.052.676-.026.417.307.879-.034,1.314-.06a.7.7,0,0,1,.674-.163l.734-.264c.2-.111.47-.026.616-.248a2.925,2.925,0,0,0,1.376-.615,20.5,20.5,0,0,1,2.681-1.538c.759-.682,1.494-1.408,2.279-2.049a1.589,1.589,0,0,0,.735-.982c.214-.281-.009-.743.29-.982.513-.376.5-.965.717-1.46.111-.35-.188-.538-.248-.819.223-.222-.017-.556.206-.778-.06-.17-.291-.214-.206-.453.051-.222.317-.145.411-.307.068-.863.718-1.478.939-2.271.026-.232-.154-.488.085-.675-.06-.376.376-.675.1-1.007,0-.222.274-.274.308-.5-.1-.238.136-.605-.163-.793a.617.617,0,0,1,.206-.642.362.362,0,0,1,.06-.409c-.129-.334.349-.641-.026-.923.2-.5-.513-.435-.649-.793a6.616,6.616,0,0,0-.205-1.231c.061-.2.291-.2.41-.366.341-.094.212.435.572.366.153-.144-.12-.2-.086-.349a.416.416,0,0,1,.188-.393" transform="translate(-857.047 -455.358)" fill="#c33"/>
      <path id="Path_23" data-name="Path 23" d="M854.088,451.047a2.69,2.69,0,0,1,.835.04,4.646,4.646,0,0,1,.769-.024c.328-.027.519.18.834.176.271.152.67.014.933.19.212-.047.321.144.52.135a.545.545,0,0,0,.532.048.527.527,0,0,1,.507.129c.335-.015.541-.286.894-.2.253.027.475.1.723.143.242-.078.157-.289.2-.474-.084-.174-.157-.373-.368-.419-.216.023-.332-.17-.55-.13a6.38,6.38,0,0,0-1.27-.533,5.121,5.121,0,0,1-2.023-.342c-.117-.034-.253-.01-.352-.079a6.465,6.465,0,0,0-1.608-.214,1.36,1.36,0,0,1-.619.067c-.315-.145-.646.049-.986.021a1.514,1.514,0,0,0-.625-.007c-.167-.057-.268.122-.416.015a1.039,1.039,0,0,0-1.058.447,3.219,3.219,0,0,1-.2.729c.134.138.138.38.316.506.388.2.806-.024,1.148-.137a3.508,3.508,0,0,1,1.859-.087" transform="translate(-850.765 -449.491)" fill="#c33"/>
      <path id="Path_24" data-name="Path 24" d="M1149.921,516.5a1.076,1.076,0,0,0-1.272-.41c-.3.171-.657.461-.513.9a.646.646,0,0,0,.777.333c.154-.214.436-.086.6-.266.076-.248.444-.265.41-.554" transform="translate(-1074.334 -499.518)" fill="#c33"/>
      <path id="Path_25" data-name="Path 25" d="M1100.821,522.447c.127.306.111.811.572.837.178.18.341,0,.555.085.128-.119.341-.033.453-.2,0-.086.085-.179,0-.248.051-.47-.213-.846-.231-1.316-.291-.46.239-.827.145-1.331a1.122,1.122,0,0,0-1.023-.427.829.829,0,0,0-.573.615,8.6,8.6,0,0,0,.1,1.989" transform="translate(-1038.701 -502.389)" fill="#c33"/>
      <path id="Path_26" data-name="Path 26" d="M1156.431,529.836a2.016,2.016,0,0,1,2.109-.88l.188.12a.625.625,0,0,1,.2.615c-.042.547-.614.821-1.05.982a3.666,3.666,0,0,1-1.639.23C1155.971,530.562,1156.313,530.169,1156.431,529.836Zm4.347,8.548c-.145-.283.018-.537-.059-.845-.257-.359-.231-.863-.642-1.128-.23-.247-.384-.632-.776-.648-.538-.462-1.332-.308-1.785-.965a5.086,5.086,0,0,1-1.084-1.829c-.034-.281-.281-.57-.1-.836a6.406,6.406,0,0,1,1.289-.247c.5-.291,1.118-.317,1.578-.7a2.378,2.378,0,0,0,.966-.879c.086-.453.36-.982.078-1.435a2.312,2.312,0,0,0-2.128-1.041,4.48,4.48,0,0,0-2.005.734,4.763,4.763,0,0,0-1.256,1.332c-.051.222-.2.435-.161.658-.155.273-.034.649-.188.922a7.45,7.45,0,0,0,.555,2.621,6.254,6.254,0,0,0,2.075,2.255.863.863,0,0,0,.368.393c.221.486.812.435,1.169.777a5.516,5.516,0,0,1,.676,1.495,1.538,1.538,0,0,1-.923.982.7.7,0,0,0-.188.375c.077.179.264.179.409.238a2.309,2.309,0,0,0,1.888-1.495,1.22,1.22,0,0,0,.247-.734" transform="translate(-1079.146 -508.385)" fill="#c33"/>
      <path id="Path_27" data-name="Path 27" d="M1142.311,532.522a11.9,11.9,0,0,1-.179,2.791c-.042.6-.077,1.12-.161,1.7a3.075,3.075,0,0,0,.161,1.331c.222.205.453.026.734.077a4.425,4.425,0,0,0,.862-.615,2.644,2.644,0,0,1-.265-1.1c.154-1.238.256-2.527.384-3.748a1.244,1.244,0,0,0,.129-.5,1.614,1.614,0,0,0-1.085-.469,1.389,1.389,0,0,0-.582.529" transform="translate(-1069.723 -511.524)" fill="#c33"/>
      <path id="Path_28" data-name="Path 28" d="M1122.681,535.188a8.147,8.147,0,0,1-.76-1.357c.5-.624,1.46.025,1.989-.529.077-.086.274.008.282-.164-.436-.836-1.554-.572-2.229-.366-.572.281-1.281.384-1.639,1a2.2,2.2,0,0,0,.469,1.358c.522,1.1,1.29,2.083,1.742,3.211.29.9.837,1.878.47,2.868-.2.215-.333.514-.614.641-.094.035-.266.086-.351-.025a.191.191,0,0,0-.265.025c-.068.307-.631.453-.367.794.222.4.683.274,1.042.274a4.507,4.507,0,0,0,1.785-1.4,2.8,2.8,0,0,0,.248-2.434,18.825,18.825,0,0,0-1.8-3.894" transform="translate(-1053.447 -511.953)" fill="#c33"/>
      <path id="Path_29" data-name="Path 29" d="M1044.984,551.18c-.17-1.741-.273-3.509-1.212-4.936a.437.437,0,0,0-.445-.307c-.307.025-.743-.187-.965.179a8.991,8.991,0,0,0-1.152,2.076c-.257.359-.24.828-.487,1.186-.086.069-.154-.026-.2-.085-.085-1.425-.231-2.861-.35-4.321.035-.333-.111-.785.205-.948-.121-.052-.094-.2-.188-.282a1.069,1.069,0,0,0-1.469.205c.061,2.51.4,5.012.649,7.5.051,1.418.47,2.708.512,4.1.043.2.222.282.375.368.384.144.623-.206.923-.341.094-.256.418-.359.385-.659a4.886,4.886,0,0,1-.249-2.4,21.877,21.877,0,0,1,1.153-4.508c.05-.094.077-.265.222-.265.341.2.341.667.469,1.025a23.561,23.561,0,0,1,.334,2.6c.2.948.111,2.016.308,2.972.1.358-.077.837.306,1.084.479.137.769-.289,1.145-.469.052-.18.315-.223.29-.41-.52-.982-.341-2.255-.554-3.365" transform="translate(-992.086 -520.201)" fill="#c33"/>
      <path id="Path_30" data-name="Path 30" d="M1102.114,558.6c-.248-1.734-.187-3.545-.289-5.328a5.8,5.8,0,0,0-.12-1.332c-.009-1.178-.137-2.4-.206-3.6l-.118-.163c-.342-.152-.837-.427-1.171-.086a1.132,1.132,0,0,0-.367.719c.308.494.154,1.11.281,1.682.1,1.9.223,3.843.29,5.78a26.7,26.7,0,0,1,.223,3.5c.05.17.043.384.247.469a1.088,1.088,0,0,0,.94-.453c.682-.077.162-.8.289-1.187" transform="translate(-1038.047 -523.499)" fill="#c33"/>
      <path id="Path_31" data-name="Path 31" d="M1071.979,556.281a6.993,6.993,0,0,1-2.093,1.187c-.342.06-.777.179-1.042-.1-.2-.215-.511-.445-.392-.778a5.722,5.722,0,0,1,2.6-1.7c.461-.095.717.35.939.648C1071.842,555.794,1072.133,556.042,1071.979,556.281Zm1.99-1.391c-.1-.283-.41-.256-.581-.453a11.094,11.094,0,0,0-1.23-3.306,3.71,3.71,0,0,0-3.253-1.9c-.24-.076-.5.086-.717-.059-.265.179-.77.443-.658.862a1.133,1.133,0,0,0,.393.385.519.519,0,0,0,.486-.077,2.459,2.459,0,0,1,1.46.487,6.253,6.253,0,0,1,1.759,2.809c.018.137.222.273.06.409a3.5,3.5,0,0,0-1.495.232,6.726,6.726,0,0,0-3.193,2.458c-.248.564.2.957.546,1.306a3.494,3.494,0,0,0,2.69.265,8.01,8.01,0,0,0,4-3.073c-.086-.137-.231-.188-.265-.341" transform="translate(-1013.3 -524.438)" fill="#c33"/>
      <path id="Path_32" data-name="Path 32" d="M1020.845,572.532a.927.927,0,0,1-.905.085,3.761,3.761,0,0,1-2.083-2.357,4.339,4.339,0,0,1,1.024-4.277c.393-.324.854.222,1.229-.172.077-.283.4-.2.529-.41a1.7,1.7,0,0,0-.837-.615c-1.254-.3-2.091.872-2.689,1.742a5.238,5.238,0,0,0-.222,5.268,3.59,3.59,0,0,0,3.177,1.99,2.824,2.824,0,0,0,1.084-.368c.2-.436.726-.52.9-.965l-.477-.53c-.418-.109-.41.436-.734.608" transform="translate(-975.222 -536.146)" fill="#c33"/>
      <path id="Path_33" data-name="Path 33" d="M965.489,585.182a66.2,66.2,0,0,1-6.38-4.782l-.041-.1c.588-.451,1.168-1,1.766-1.468.736-.435,1.349-1.18,2.212-1.316.308-.273.828-.5.863-.965a.914.914,0,0,0-.966-.341,3.52,3.52,0,0,0-.657.486,25.417,25.417,0,0,0-2.579,1.871c-.324.188-.443.623-.845.632-.162-.146-.128-.4-.222-.6a13.214,13.214,0,0,0-.248-1.614,7.692,7.692,0,0,1-.325-1.358c0-.435-.069-.9-.043-1.367l-.1-.145c-.281-.042-.554-.248-.837-.058a.753.753,0,0,0-.5.572,13.271,13.271,0,0,1,.146,1.349,31.891,31.891,0,0,0,.82,3.952c.016.334-.4.538-.307.923.068.435.716.5.716.981.283,1.5.744,2.912,1.026,4.406.195.436-.129,1.256.571,1.375.206-.153.632,0,.658-.366a1.438,1.438,0,0,0,.529-.94,1.112,1.112,0,0,1-.308-.8,15.465,15.465,0,0,1-.777-2.476l.06-.085a.469.469,0,0,1,.188.016,44.811,44.811,0,0,1,4.551,3.587c.521.231.871-.273,1.188-.572a1.4,1.4,0,0,0,.221-.555.859.859,0,0,0-.384-.239" transform="translate(-930.335 -543.093)" fill="#c33"/>
      <path id="Path_34" data-name="Path 34" d="M988.559,583.5c-.641.539-1.23,1.333-2.126,1.127a1.987,1.987,0,0,1-1.187-1.553c-.077-.906.743-1.606,1.391-2.212.222-.018.461.129.675-.043.239-.35.666-.239.94-.5a1.657,1.657,0,0,1,1.4,1.127A3.19,3.19,0,0,1,988.559,583.5Zm-.546-4.362c-.316-.027-.529.2-.819.2-.437.342-.958.462-1.333.922a8.264,8.264,0,0,0-1.887,2.34,2.037,2.037,0,0,0,.146,1.846A2.342,2.342,0,0,0,986.3,585.8a2.616,2.616,0,0,0,1.708-.572,12.457,12.457,0,0,0,3.074-3.526,2.318,2.318,0,0,0-.436-1.349,3.2,3.2,0,0,0-2.638-1.212" transform="translate(-950.81 -546.973)" fill="#c33"/>
      <path id="Path_35" data-name="Path 35" d="M929.619,601.719c-.154.572-.888.35-1.374.436a7.758,7.758,0,0,1-1.657,0,3.41,3.41,0,0,1-2.809-2.092c-.034-.829.871-1.1,1.433-1.418.59-.119,1.35-.674,1.845,0l.265.129a.688.688,0,0,0,.674.2c.367-.06.606-.487,1.008-.375a15.194,15.194,0,0,1,.555,2.049C929.56,601.02,929.8,601.387,929.619,601.719Zm.735-3.869c.008-.093.068-.1.1-.187a.757.757,0,0,0-.2-.162,7.923,7.923,0,0,0-1.229-2.179,6.177,6.177,0,0,0-3.587-2.271,3.06,3.06,0,0,0-2.784.837c-.324.564-.922,1.23-.452,1.888.666.521.786-.548,1.229-.794-.024-.128-.051-.3.1-.376a2.341,2.341,0,0,1,1.46-.239,5.462,5.462,0,0,1,3.518,2.886c-.025.05-.077.12-.136.12a7.423,7.423,0,0,0-2.425,0,6.819,6.819,0,0,0-3.006,1.537,2.428,2.428,0,0,0-.641,1.887,3.936,3.936,0,0,0,2.211,2.135c1.76.632,3.937.256,5.8.248l.247-.188c.2-.393,1.033-.718.572-1.247a17.56,17.56,0,0,0-.776-3.895" transform="translate(-904.345 -557.401)" fill="#c33"/>
      <path id="Path_36" data-name="Path 36" d="M896.525,614.078c-.794.17-1.64.094-2.417.23a14.506,14.506,0,0,1-3.039.41c-.112-.042-.265-.154-.265-.29a21.557,21.557,0,0,1,1.664-2.767c.829-1.2,1.665-2.4,2.434-3.628.282-.419.649-.821.555-1.367l-.043-.128a1.371,1.371,0,0,0-1.289-.222,12.7,12.7,0,0,0-1.538.283c-1.169.256-2.177.9-3.364,1.109-.367.111-.214.607-.367.862.119.138.068.351.231.47a.5.5,0,0,0,.486.188,10.21,10.21,0,0,1,3.219-1.416c.351-.044.777-.273,1.086-.044.068.094-.027.181-.078.248-1.281,1.946-2.665,3.851-3.894,5.824a5.554,5.554,0,0,0-.615.9c-.145.307.086.564.18.82a2.052,2.052,0,0,0,1.7.411c1.127-.2,2.322-.341,3.467-.556.589.06,1.306-.137,1.844.171.239.145.427-.077.614-.188.171-.316.581-.367.657-.734.222-.35-.2-.487-.29-.76-.324-.427-.632.078-.939.18" transform="translate(-879.407 -567.343)" fill="#c33"/>
    </g>
  </g>
</svg>
