<svg xmlns="http://www.w3.org/2000/svg" width="19" height="19" viewBox="0 0 19 19">
  <g id="Zoom_In" data-name="Zoom In" transform="translate(-1 -1)">
    <path id="Path_245" data-name="Path 245" d="M20,19l-4.113-4.113a8.463,8.463,0,1,0-1,1L19,20ZM2.407,9.444a7.037,7.037,0,1,1,7.037,7.037A7.045,7.045,0,0,1,2.407,9.444Z" fill="#fff"/>
    <path id="Path_246" data-name="Path 246" d="M13.519,11.407h-.7v-.7a.7.7,0,1,0-1.407,0v.7h-.7a.7.7,0,1,0,0,1.407h.7v.7a.7.7,0,1,0,1.407,0v-.7h.7a.7.7,0,1,0,0-1.407Z" transform="translate(-2.667 -2.667)" fill="#fff"/>
  </g>
</svg>
